<svg width="452" height="100" viewBox="0 0 452 100" fill="none" xmlns="http://www.w3.org/2000/svg">
<path d="M71.3649 38.9535C71.3649 62.2093 54.4532 77.907 29.6254 77.907H0V0H29.6254C54.5732 0 71.3649 15.6977 71.3649 38.9535ZM29.5055 12.7907H14.3929V65.1163H29.5055C46.0574 65.1163 56.972 54.7674 56.972 38.9535C56.972 23.1395 46.0574 12.7907 29.5055 12.7907Z" fill="#308FBF"/>
<path d="M79.7983 50C79.7983 33.1395 92.2722 20.9302 109.544 20.9302C126.815 20.9302 139.289 33.1395 139.289 50C139.289 51.0465 139.169 51.9767 138.929 53.4884H93.2317C94.671 61.3953 100.668 66.2791 109.544 66.2791C115.541 66.2791 120.458 64.0698 123.337 59.8837H137.73C134.012 71.6279 123.217 79.0698 109.544 79.0698C92.1522 79.0698 79.7983 66.9767 79.7983 50ZM93.8314 44.186H125.256C123.097 37.6744 117.34 33.7209 109.544 33.7209C101.628 33.7209 95.8704 37.6744 93.8314 44.186Z" fill="#E6F7FF"/>
<path d="M197.54 42.4419H184.347C184.347 36.8605 179.309 33.1395 171.633 33.1395C165.396 33.1395 160.838 36.0465 160.838 39.8837C160.838 51.3953 201.258 52.2093 201.258 77.907H188.065C188.065 60.814 147.645 62.7907 147.645 39.8837C147.645 28.9535 158.08 20.9302 172.352 20.9302C187.225 20.9302 197.54 29.7674 197.54 42.4419ZM156.041 62.7907C160.838 62.7907 164.436 66.2791 164.436 70.9302C164.436 75.5814 160.838 79.0698 156.041 79.0698C151.243 79.0698 147.645 75.5814 147.645 70.9302C147.645 66.2791 151.243 62.7907 156.041 62.7907Z" fill="#E6F7FF"/>
<path d="M205.451 34.8837V22.093H212.647V6.97674H225.841V22.093H239.634V34.8837H225.841V53.4884C225.841 61.7442 230.758 66.2791 239.634 66.2791V79.0698C223.442 79.0698 212.647 68.8372 212.647 53.4884V34.8837H205.451Z" fill="#E6F7FF"/>
<path d="M291.818 50.5814V43.0233H305.011V58.3721C305.011 63.2558 308.13 66.2791 313.407 66.2791V79.0698C306.091 79.0698 299.854 76.0465 296.135 71.1628C290.858 76.0465 283.662 79.0698 275.626 79.0698C259.194 79.0698 246.24 66.5116 246.24 50.5814C246.24 34.5349 259.194 22.093 275.626 22.093H305.011V34.8837H275.626C266.63 34.8837 259.433 41.7442 259.433 50.5814C259.433 59.4186 266.63 66.2791 275.626 66.2791C284.861 66.2791 291.818 59.4186 291.818 50.5814Z" fill="#E6F7FF"/>
<path d="M362.564 50.5814V43.0233H375.758V100H362.564V73.3721C357.766 76.9767 351.889 79.0698 345.293 79.0698C329.46 79.0698 316.986 66.5116 316.986 50.5814C316.986 34.5349 329.94 22.093 346.372 22.093H375.758V34.8837H346.372C337.376 34.8837 330.18 41.7442 330.18 50.5814C330.18 59.4186 337.376 66.2791 346.372 66.2791C355.607 66.2791 362.564 59.4186 362.564 50.5814Z" fill="#E6F7FF"/>
<path d="M402.631 27.723C402.492 26.4145 401.876 25.3738 400.782 24.6009C399.689 23.828 398.314 23.4416 396.657 23.4416C395.49 23.4416 394.461 23.629 393.572 24.004C392.69 24.379 391.996 24.8993 391.49 25.5651C390.993 26.2232 390.744 26.9731 390.744 27.8148C390.744 28.4347 390.886 28.978 391.172 29.4448C391.458 29.9116 391.841 30.3133 392.323 30.65C392.813 30.9791 393.351 31.2622 393.939 31.4994C394.535 31.7366 395.135 31.9356 395.739 32.0963L398.383 32.8079C399.183 33.0146 399.983 33.2786 400.782 33.6C401.582 33.9214 402.313 34.3269 402.974 34.8167C403.643 35.2988 404.178 35.8918 404.578 36.5958C404.986 37.2922 405.19 38.1301 405.19 39.1096C405.19 40.3646 404.843 41.4933 404.149 42.4957C403.455 43.4982 402.46 44.294 401.162 44.8832C399.864 45.4648 398.309 45.7556 396.498 45.7556C394.792 45.7556 393.31 45.4916 392.054 44.9636C390.797 44.4279 389.809 43.6895 389.091 42.7483C388.373 41.807 387.969 40.7166 387.879 39.4769H390.229C390.311 40.4028 390.638 41.1872 391.209 41.83C391.78 42.4728 392.523 42.9625 393.437 43.2992C394.351 43.6283 395.371 43.7928 396.498 43.7928C397.746 43.7928 398.856 43.5977 399.828 43.2074C400.807 42.8095 401.574 42.2585 402.129 41.5545C402.692 40.8428 402.974 40.0164 402.974 39.0752C402.974 38.2793 402.754 37.6136 402.313 37.0779C401.872 36.5346 401.256 36.0793 400.464 35.712C399.681 35.3447 398.771 35.0195 397.734 34.7363L394.735 33.9099C392.768 33.3589 391.242 32.5975 390.156 31.6257C389.071 30.6538 388.528 29.4142 388.528 27.9067C388.528 26.644 388.887 25.5345 389.605 24.5779C390.331 23.6137 391.311 22.8638 392.543 22.3282C393.784 21.7848 395.175 21.5132 396.718 21.5132C398.277 21.5132 399.656 21.781 400.856 22.3167C402.056 22.8523 403.007 23.5908 403.708 24.532C404.418 25.4656 404.798 26.5293 404.847 27.723H402.631Z" fill="#E6F7FF"/>
<path d="M409.181 23.7744V21.8461H427.361V23.7744H419.416V45.3539H417.126V23.7744H409.181Z" fill="#E6F7FF"/>
<path d="M449.226 21.8461H451.515V37.4108C451.515 39.0101 451.115 40.4411 450.316 41.7037C449.516 42.9587 448.402 43.9497 446.973 44.6766C445.553 45.3959 443.9 45.7556 442.015 45.7556C440.138 45.7556 438.485 45.3921 437.057 44.6652C435.629 43.9382 434.515 42.9472 433.715 41.6922C432.915 40.4373 432.515 39.0101 432.515 37.4108V21.8461H434.804V37.2616C434.804 38.5089 435.102 39.6223 435.698 40.6018C436.294 41.5736 437.13 42.3389 438.208 42.8975C439.293 43.4561 440.562 43.7354 442.015 43.7354C443.468 43.7354 444.737 43.4561 445.823 42.8975C446.908 42.3389 447.745 41.5736 448.332 40.6018C448.928 39.6223 449.226 38.5089 449.226 37.2616V21.8461Z" fill="#E6F7FF"/>
<path d="M395.193 78.4652H387.879V54.868H395.632C398.013 54.868 400.049 55.3366 401.739 56.2737C403.438 57.2108 404.738 58.5551 405.64 60.3064C406.542 62.0578 406.993 64.1587 406.993 66.609C406.993 69.0824 406.53 71.2063 405.604 72.9807C404.685 74.7474 403.344 76.1032 401.581 77.048C399.825 77.9928 397.696 78.4652 395.193 78.4652ZM390.158 76.5295H395.059C397.205 76.5295 399.001 76.1301 400.447 75.3312C401.894 74.5323 402.979 73.3917 403.702 71.9092C404.425 70.4267 404.787 68.6599 404.787 66.609C404.779 64.5734 404.421 62.8221 403.714 61.3549C403.015 59.8878 401.975 58.7625 400.593 57.979C399.22 57.1955 397.521 56.8037 395.498 56.8037H390.158V76.5295Z" fill="#E6F7FF"/>
<path d="M419.604 54.868V78.4652H417.325V54.868H419.604Z" fill="#E6F7FF"/>
<path d="M451.515 66.6666C451.515 69.1247 451.052 71.2639 450.126 73.0844C449.199 74.8972 447.923 76.3029 446.298 77.3015C444.681 78.2924 442.819 78.7878 440.715 78.7878C438.61 78.7878 436.745 78.2924 435.119 77.3015C433.502 76.3029 432.23 74.8972 431.304 73.0844C430.385 71.2639 429.926 69.1247 429.926 66.6666C429.926 64.2086 430.385 62.0732 431.304 60.2604C432.23 58.4399 433.506 57.0342 435.131 56.0433C436.757 55.0447 438.618 54.5454 440.715 54.5454C442.819 54.5454 444.681 55.0447 446.298 56.0433C447.923 57.0342 449.199 58.4399 450.126 60.2604C451.052 62.0732 451.515 64.2086 451.515 66.6666ZM449.297 66.6666C449.297 64.5542 448.923 62.7453 448.175 61.2397C447.427 59.7265 446.408 58.5705 445.115 57.7716C443.823 56.9727 442.356 56.5733 440.715 56.5733C439.081 56.5733 437.618 56.9727 436.326 57.7716C435.034 58.5705 434.01 59.7227 433.254 61.2282C432.506 62.7338 432.133 64.5466 432.133 66.6666C432.133 68.779 432.506 70.588 433.254 72.0935C434.002 73.5991 435.022 74.7551 436.314 75.5617C437.606 76.3605 439.073 76.7599 440.715 76.7599C442.356 76.7599 443.823 76.3605 445.115 75.5617C446.416 74.7628 447.44 73.6106 448.187 72.105C448.935 70.5918 449.305 68.779 449.297 66.6666Z" fill="#E6F7FF"/>
</svg>
