<svg width="1920" height="525" viewBox="0 0 1920 525" fill="none" xmlns="http://www.w3.org/2000/svg">
<path d="M364.652 204.506C364.652 326.599 278.239 409.012 151.376 409.012H0V0H151.376C278.851 0 364.652 82.4128 364.652 204.506ZM150.764 67.1512H73.5432V341.86H150.764C235.338 341.86 291.109 287.529 291.109 204.506C291.109 121.483 235.338 67.1512 150.764 67.1512Z" fill="#CEE6F2"/>
<path d="M407.744 262.5C407.744 173.983 471.481 109.884 559.733 109.884C647.985 109.884 711.722 173.983 711.722 262.5C711.722 267.994 711.109 272.878 709.884 280.814H476.384C483.738 322.326 514.381 347.965 559.733 347.965C590.376 347.965 615.503 336.366 630.212 314.39H703.755C684.756 376.046 629.599 415.116 559.733 415.116C470.868 415.116 407.744 351.628 407.744 262.5ZM479.448 231.977H640.018C628.986 197.791 599.569 177.035 559.733 177.035C519.284 177.035 489.867 197.791 479.448 231.977Z" fill="#CEE6F2"/>
<path d="M1009.37 222.82H941.952C941.952 193.517 916.212 173.983 876.989 173.983C845.12 173.983 821.831 189.244 821.831 209.39C821.831 269.826 1028.37 274.099 1028.37 409.012H960.95C960.95 319.273 754.417 329.651 754.417 209.39C754.417 152.006 807.735 109.884 880.666 109.884C956.66 109.884 1009.37 156.279 1009.37 222.82ZM797.317 329.651C821.831 329.651 840.217 347.965 840.217 372.384C840.217 396.802 821.831 415.116 797.317 415.116C772.802 415.116 754.417 396.802 754.417 372.384C754.417 347.965 772.802 329.651 797.317 329.651Z" fill="#CEE6F2"/>
<path d="M1049.79 183.14V115.988H1086.56V36.6279H1153.97V115.988H1224.45V183.14H1153.97V280.814C1153.97 324.157 1179.1 347.965 1224.45 347.965V415.116C1141.72 415.116 1086.56 361.395 1086.56 280.814V183.14H1049.79Z" fill="#CEE6F2"/>
<path d="M1491.09 265.552V225.872H1558.51V306.453C1558.51 332.093 1574.44 347.965 1601.41 347.965V415.116C1564.02 415.116 1532.16 399.244 1513.16 373.605C1486.19 399.244 1449.42 415.116 1408.36 415.116C1324.4 415.116 1258.21 349.186 1258.21 265.552C1258.21 181.308 1324.4 115.988 1408.36 115.988H1558.51V183.14H1408.36C1362.39 183.14 1325.62 219.157 1325.62 265.552C1325.62 311.948 1362.39 347.965 1408.36 347.965C1455.55 347.965 1491.09 311.948 1491.09 265.552Z" fill="#CEE6F2"/>
<path d="M1852.59 265.552V225.872H1920V525H1852.59V385.203C1828.07 404.128 1798.04 415.116 1764.33 415.116C1683.44 415.116 1619.7 349.186 1619.7 265.552C1619.7 181.308 1685.89 115.988 1769.85 115.988H1920V183.14H1769.85C1723.88 183.14 1687.11 219.157 1687.11 265.552C1687.11 311.948 1723.88 347.965 1769.85 347.965C1817.04 347.965 1852.59 311.948 1852.59 265.552Z" fill="#CEE6F2"/>
</svg>
