<?xml version="1.0" encoding="UTF-8"?>
<svg id="Camada_1" data-name="Camada 1" xmlns="http://www.w3.org/2000/svg" viewBox="0 0 557.33 557.33">
  <circle cx="278.66" cy="278.66" r="214.32" style="fill: none;"/>
  <path d="M66.84,240.63l-51.8-14.1,10.2-37.45,6.11,1.66-8.33,30.6,15.87,4.32,7.8-28.66,6.08,1.65-7.8,28.66,17.63,4.8,8.66-31.8,6.11,1.66-10.53,38.66Z" style="fill: #e6f7ff;"/>
  <path d="M80.19,196.08l-34.69-17.58,2.68-5.29,4.93,2.5c-2.52-4.48-2.56-9.12-.12-13.94,1.06-2.09,2.41-3.82,4.05-5.19,1.64-1.37,3.29-2.18,4.95-2.44,1.66-.25,3.42-.13,5.27.37,1.2.33,3.16,1.19,5.88,2.57l21.33,10.81-2.98,5.88-21.1-10.7c-2.4-1.21-4.3-1.89-5.72-2.04-1.42-.14-2.78.19-4.08.99-1.3.81-2.35,1.99-3.14,3.56-1.27,2.5-1.57,5.07-.9,7.69.67,2.62,3.22,5.06,7.67,7.31l18.94,9.6-2.98,5.88Z" style="fill: #e6f7ff;"/>
  <path d="M102.73,145.89l5.33,2.54c-.74,1.75-1.52,3.22-2.36,4.43-1.36,1.97-2.73,3.27-4.11,3.92-1.37.65-2.72.85-4.04.58-1.32-.26-3.6-1.52-6.85-3.78l-18.38-12.76-2.76,3.97-4.21-2.92,2.76-3.97-7.91-5.49.49-7.64,11.16,7.75,3.78-5.44,4.21,2.92-3.78,5.44,18.68,12.97c1.54,1.07,2.6,1.67,3.18,1.78.57.12,1.14.05,1.7-.2.56-.25,1.12-.78,1.68-1.58.42-.6.9-1.44,1.44-2.52Z" style="fill: #e6f7ff;"/>
  <path d="M110.74,145.26l-29.56-25.27,3.85-4.51,4.48,3.83c-1.11-2.94-1.59-5.19-1.42-6.73.17-1.55.75-2.9,1.75-4.07,1.44-1.69,3.45-2.94,6.02-3.77l3.17,5.7c-1.77.61-3.18,1.52-4.23,2.75-.94,1.1-1.45,2.36-1.53,3.8-.09,1.44.3,2.84,1.15,4.21,1.31,2.08,3.02,4.02,5.13,5.83l15.48,13.23-4.28,5.01Z" style="fill: #e6f7ff;"/>
  <path d="M137.65,100.64l5.69-3.84c1.81,3.71,2.34,7.34,1.59,10.91-.74,3.57-2.82,6.83-6.22,9.8-4.29,3.74-8.84,5.39-13.65,4.94-4.81-.45-9.3-3.06-13.46-7.82-4.3-4.93-6.37-9.86-6.21-14.8.16-4.94,2.27-9.17,6.31-12.7,3.92-3.42,8.28-4.88,13.09-4.38,4.81.5,9.33,3.17,13.55,8.01.26.29.63.74,1.13,1.35l-21.85,19.07c2.99,3.06,6.05,4.73,9.18,5.01,3.13.28,5.92-.64,8.36-2.78,1.82-1.59,2.96-3.42,3.41-5.5.45-2.08.14-4.5-.93-7.25ZM114.33,106.84l16.36-14.28c-2.37-2.27-4.61-3.58-6.72-3.91-3.25-.53-6.14.3-8.66,2.5-2.28,1.99-3.53,4.43-3.75,7.31-.22,2.88.7,5.68,2.77,8.38Z" style="fill: #e6f7ff;"/>
  <path d="M210.93,61.84l6.69-1.54c.35,4.11-.45,7.69-2.43,10.75-1.98,3.06-5.08,5.36-9.33,6.91-5.34,1.95-10.18,1.85-14.51-.3-4.33-2.15-7.58-6.19-9.75-12.13-2.24-6.15-2.4-11.49-.48-16.04s5.41-7.75,10.46-9.59c4.88-1.78,9.48-1.58,13.79.62,4.31,2.2,7.57,6.31,9.77,12.34.13.37.32.92.57,1.66l-27.25,9.95c1.69,3.93,3.95,6.59,6.77,7.98,2.82,1.39,5.75,1.52,8.8.41,2.27-.83,3.99-2.13,5.16-3.91,1.17-1.78,1.75-4.15,1.73-7.1ZM186.94,59.25l20.4-7.45c-1.4-2.97-3.02-4.99-4.86-6.06-2.84-1.66-5.84-1.92-8.98-.78-2.84,1.04-4.89,2.86-6.13,5.47-1.24,2.61-1.39,5.55-.43,8.81Z" style="fill: #e6f7ff;"/>
  <path d="M226.72,69.02l-4.64-38.61,5.85-.7.65,5.42c.98-2.04,2.41-3.75,4.29-5.14,1.87-1.39,4.09-2.24,6.66-2.55,2.86-.34,5.28-.03,7.25.94,1.97.97,3.46,2.47,4.47,4.52,2.51-4.88,6.22-7.61,11.11-8.2,3.83-.46,6.9.25,9.22,2.12,2.31,1.87,3.74,5.02,4.27,9.43l3.18,26.51-6.51.78-2.92-24.32c-.31-2.62-.75-4.48-1.32-5.58-.56-1.1-1.44-1.93-2.64-2.5-1.2-.57-2.55-.76-4.05-.58-2.71.33-4.86,1.5-6.44,3.52-1.58,2.02-2.13,5.02-1.65,9l2.69,22.43-6.54.79-3.01-25.09c-.35-2.91-1.14-5.03-2.39-6.35-1.24-1.33-3.07-1.84-5.5-1.55-1.84.22-3.49.91-4.93,2.07-1.45,1.16-2.41,2.71-2.89,4.66-.48,1.95-.51,4.68-.08,8.2l2.41,20.03-6.54.79Z" style="fill: #e6f7ff;"/>
  <path d="M353.58,62.35l5.99,2.62c-1.92,4.09-4.64,6.95-8.15,8.56s-7.3,1.83-11.38.64c-5.11-1.48-8.74-4.35-10.87-8.59-2.14-4.24-2.3-9.48-.49-15.72,1.17-4.03,2.86-7.37,5.08-10,2.21-2.64,4.91-4.31,8.08-5.03,3.17-.72,6.36-.61,9.57.32,4.06,1.18,7.08,3.17,9.06,5.97,1.98,2.8,2.79,6.19,2.42,10.18l-6.43-.84c.14-2.68-.35-4.87-1.47-6.57s-2.74-2.85-4.85-3.47c-3.19-.93-6.11-.53-8.77,1.17-2.66,1.71-4.7,5.04-6.14,9.98-1.46,5.02-1.55,8.94-.29,11.77,1.26,2.83,3.44,4.7,6.54,5.6,2.49.72,4.78.56,6.89-.48,2.11-1.04,3.84-3.08,5.21-6.12Z" style="fill: #e6f7ff;"/>
  <path d="M365.41,60.75c3.18-6.46,7.34-10.36,12.46-11.7,4.27-1.1,8.57-.59,12.88,1.53,4.8,2.36,7.94,5.87,9.44,10.51,1.49,4.64.88,9.73-1.85,15.27-2.21,4.49-4.63,7.69-7.24,9.6s-5.56,2.94-8.83,3.1-6.43-.52-9.48-2.02c-4.88-2.41-8.06-5.92-9.53-10.53-1.47-4.62-.75-9.87,2.15-15.76ZM371.49,63.75c-2.2,4.47-2.88,8.29-2.02,11.48s2.76,5.5,5.71,6.96c2.93,1.45,5.93,1.53,8.98.26,3.05-1.27,5.7-4.2,7.96-8.77,2.13-4.31,2.76-8.07,1.89-11.25s-2.75-5.5-5.67-6.94c-2.96-1.46-5.95-1.56-8.99-.31-3.04,1.25-5.66,4.11-7.86,8.58Z" style="fill: #e6f7ff;"/>
  <path d="M394.04,97.33l23.27-31.16,4.75,3.55-3.31,4.43c4.85-1.71,9.43-.96,13.75,2.27,1.88,1.4,3.35,3.03,4.42,4.88,1.07,1.85,1.59,3.62,1.55,5.3s-.46,3.39-1.27,5.13c-.54,1.12-1.72,2.91-3.54,5.35l-14.31,19.16-5.28-3.94,14.16-18.95c1.61-2.15,2.6-3.91,2.99-5.29.38-1.37.29-2.77-.28-4.19-.57-1.42-1.56-2.65-2.97-3.7-2.25-1.68-4.72-2.42-7.42-2.21-2.7.21-5.54,2.31-8.52,6.3l-12.71,17.02-5.28-3.94Z" style="fill: #e6f7ff;"/>
  <path d="M439.65,128.15l-3.41,4.81c-1.59-1.03-2.91-2.05-3.96-3.08-1.7-1.68-2.76-3.25-3.17-4.72s-.37-2.82.11-4.08c.48-1.25,2.11-3.29,4.89-6.11l15.71-15.93-3.44-3.39,3.6-3.65,3.44,3.39,6.76-6.86,7.44,1.79-9.54,9.67,4.72,4.66-3.6,3.65-4.72-4.66-15.97,16.19c-1.32,1.34-2.09,2.28-2.3,2.83s-.24,1.12-.09,1.71c.15.59.57,1.23,1.27,1.92.52.51,1.27,1.13,2.24,1.85Z" style="fill: #e6f7ff;"/>
  <path d="M458.27,152.77c-3.13-.67-5.73-1.64-7.78-2.91-2.05-1.27-3.87-2.93-5.45-4.98-2.6-3.39-3.78-6.63-3.52-9.72.26-3.09,1.67-5.63,4.25-7.6,1.51-1.16,3.15-1.88,4.93-2.15,1.78-.27,3.47-.14,5.08.39,1.61.53,3.14,1.35,4.6,2.44,1.06.82,2.51,2.17,4.35,4.04,3.75,3.83,6.73,6.48,8.96,7.94.73-.53,1.19-.87,1.39-1.02,2.13-1.64,3.25-3.28,3.36-4.94.15-2.24-.78-4.68-2.8-7.31-1.89-2.46-3.71-3.94-5.48-4.45-1.76-.51-3.95-.2-6.57.92l-3.23-5.65c2.54-1.22,4.9-1.81,7.06-1.78,2.16.03,4.38.77,6.66,2.23,2.27,1.46,4.43,3.51,6.47,6.16,2.02,2.63,3.36,5.01,4,7.13.64,2.12.8,3.93.45,5.43-.34,1.5-1.11,2.95-2.31,4.36-.76.86-2.3,2.18-4.62,3.97l-6.97,5.36c-4.86,3.73-7.85,6.21-8.96,7.42-1.12,1.21-2.01,2.6-2.69,4.17l-4.19-5.46c.67-1.38,1.67-2.7,3-3.97ZM469.61,143.36c-2.23-1.3-5.08-3.64-8.54-7.02-1.96-1.91-3.48-3.16-4.55-3.76-1.07-.59-2.17-.85-3.28-.76-1.12.09-2.13.48-3.04,1.18-1.39,1.07-2.15,2.49-2.27,4.26-.12,1.77.6,3.67,2.17,5.7,1.55,2.01,3.36,3.47,5.45,4.36,2.09.89,4.18,1.12,6.27.68,1.61-.35,3.57-1.4,5.87-3.17l1.92-1.47Z" style="fill: #e6f7ff;"/>
  <path d="M474.56,177.59l-4.59,3.71c-1.26-1.42-2.25-2.76-2.97-4.04-1.18-2.08-1.77-3.88-1.77-5.4s.41-2.82,1.22-3.9c.8-1.08,2.93-2.59,6.36-4.55l19.44-11.07-2.39-4.2,4.46-2.54,2.39,4.2,8.37-4.77,6.68,3.74-11.81,6.72,3.28,5.76-4.46,2.54-3.28-5.76-19.76,11.25c-1.63.93-2.63,1.63-2.98,2.1-.35.47-.54,1.01-.55,1.62-.02.61.22,1.34.7,2.19.36.64.91,1.43,1.65,2.39Z" style="fill: #e6f7ff;"/>
  <path d="M489.07,175.05c6.69-2.67,12.39-2.78,17.09-.35,3.91,2.04,6.76,5.29,8.54,9.76,1.98,4.97,1.97,9.67-.03,14.12s-5.86,7.82-11.6,10.11c-4.65,1.85-8.58,2.61-11.8,2.28s-6.1-1.54-8.64-3.61c-2.54-2.08-4.43-4.69-5.69-7.84-2.02-5.06-2.03-9.79-.03-14.2,2-4.41,6.05-7.83,12.15-10.27ZM491.58,181.35c-4.63,1.84-7.69,4.23-9.18,7.17-1.5,2.94-1.63,5.94-.41,9,1.21,3.04,3.38,5.11,6.49,6.2,3.12,1.1,7.05.7,11.79-1.19,4.47-1.78,7.45-4.15,8.94-7.09,1.49-2.95,1.64-5.93.43-8.95-1.22-3.06-3.38-5.14-6.47-6.25-3.1-1.1-6.96-.73-11.58,1.11Z" style="fill: #e6f7ff;"/>
  <path d="M508.33,257.3l6.62-.32.98,20.23-6.62.32-.98-20.23Z" style="fill: #e6f7ff;"/>
  <path d="M489.11,323.71l51.3,15.83-11.45,37.09-6.05-1.87,9.35-30.3-15.71-4.85-8.76,28.38-6.02-1.86,8.76-28.38-17.46-5.39-9.72,31.49-6.05-1.87,11.81-38.28Z" style="fill: #e6f7ff;"/>
  <path d="M474.28,367.76l34.09,18.73-2.86,5.2-4.85-2.66c2.37,4.56,2.25,9.21-.34,13.93-1.13,2.05-2.54,3.74-4.22,5.06-1.68,1.32-3.36,2.07-5.03,2.27-1.67.2-3.42.01-5.26-.55-1.19-.37-3.12-1.3-5.79-2.76l-20.96-11.51,3.17-5.78,20.73,11.39c2.35,1.29,4.24,2.04,5.65,2.23,1.41.19,2.78-.09,4.11-.86,1.32-.76,2.41-1.92,3.26-3.46,1.35-2.46,1.74-5.01,1.16-7.66-.58-2.65-3.05-5.17-7.42-7.56l-18.62-10.23,3.17-5.78Z" style="fill: #e6f7ff;"/>
  <path d="M450.08,417.19l-5.24-2.71c.79-1.72,1.63-3.17,2.5-4.35,1.43-1.92,2.84-3.18,4.23-3.79,1.39-.61,2.75-.76,4.06-.45,1.31.3,3.55,1.64,6.72,4l17.95,13.36,2.89-3.88,4.11,3.06-2.89,3.88,7.72,5.75-.74,7.62-10.9-8.11-3.96,5.32-4.11-3.06,3.96-5.32-18.24-13.58c-1.51-1.12-2.55-1.75-3.12-1.89-.57-.13-1.14-.09-1.71.14-.57.23-1.14.74-1.73,1.52-.44.59-.94,1.41-1.52,2.47Z" style="fill: #e6f7ff;"/>
  <path d="M442.06,417.55l28.71,26.23-4,4.38-4.35-3.98c1.02,2.98,1.42,5.24,1.2,6.78-.22,1.54-.84,2.88-1.88,4.01-1.5,1.64-3.54,2.83-6.14,3.57l-2.98-5.8c1.79-.55,3.23-1.42,4.32-2.61.97-1.06,1.52-2.31,1.66-3.74.13-1.43-.2-2.85-1.01-4.25-1.24-2.12-2.88-4.12-4.94-6l-15.03-13.73,4.45-4.87Z" style="fill: #e6f7ff;"/>
  <path d="M413.69,461.27l-5.81,3.65c-1.68-3.76-2.09-7.41-1.23-10.95.86-3.54,3.04-6.74,6.54-9.59,4.41-3.6,9.01-5.09,13.81-4.48s9.19,3.36,13.19,8.26c4.14,5.07,6.04,10.07,5.72,15s-2.57,9.09-6.73,12.49c-4.03,3.29-8.44,4.6-13.23,3.94-4.79-.66-9.22-3.48-13.28-8.45-.25-.3-.61-.76-1.08-1.38l22.47-18.34c-2.89-3.16-5.89-4.93-9.01-5.31-3.12-.39-5.94.45-8.45,2.5-1.87,1.53-3.07,3.32-3.59,5.39-.52,2.06-.29,4.49.69,7.28ZM437.19,455.84l-16.83,13.73c2.29,2.35,4.49,3.73,6.58,4.13,3.23.64,6.14-.1,8.74-2.21,2.35-1.91,3.68-4.31,3.99-7.18.32-2.88-.51-5.7-2.49-8.46Z" style="fill: #e6f7ff;"/>
  <path d="M339.17,497.6l-6.73,1.32c-.22-4.12.71-7.67,2.79-10.66,2.08-2.99,5.26-5.19,9.55-6.6,5.41-1.77,10.24-1.51,14.5.78,4.26,2.29,7.37,6.44,9.34,12.45,2.04,6.22,2.02,11.57-.06,16.05-2.08,4.48-5.67,7.56-10.77,9.23-4.94,1.62-9.53,1.26-13.76-1.08-4.23-2.34-7.35-6.56-9.35-12.66-.12-.37-.29-.93-.51-1.68l27.56-9.03c-1.56-3.98-3.73-6.72-6.5-8.2-2.77-1.48-5.7-1.72-8.79-.71-2.3.75-4.06,2-5.29,3.74s-1.89,4.09-1.97,7.04ZM363.05,500.99l-20.64,6.76c1.3,3.02,2.85,5.09,4.66,6.22,2.79,1.76,5.77,2.12,8.95,1.08,2.88-.94,4.98-2.7,6.31-5.27,1.33-2.57,1.57-5.5.72-8.79Z" style="fill: #e6f7ff;"/>
  <path d="M323.59,489.9l3.36,38.75-5.87.51-.47-5.44c-1.05,2-2.54,3.67-4.46,5-1.92,1.33-4.17,2.11-6.75,2.33-2.87.25-5.27-.14-7.21-1.18-1.94-1.03-3.38-2.59-4.32-4.66-2.67,4.79-6.47,7.4-11.38,7.82-3.84.33-6.89-.48-9.14-2.42-2.25-1.95-3.57-5.14-3.95-9.56l-2.3-26.6,6.53-.57,2.11,24.41c.23,2.63.6,4.5,1.13,5.62.53,1.12,1.38,1.98,2.56,2.59,1.18.61,2.52.85,4.03.72,2.72-.24,4.91-1.34,6.55-3.31,1.64-1.97,2.29-4.95,1.95-8.93l-1.95-22.51,6.57-.57,2.18,25.17c.25,2.92.98,5.06,2.17,6.43,1.2,1.37,3.01,1.94,5.44,1.73,1.85-.16,3.52-.79,5-1.9s2.5-2.63,3.04-4.56c.54-1.93.66-4.67.36-8.19l-1.74-20.1,6.57-.57Z" style="fill: #e6f7ff;"/>
  <path d="M196.6,492.36l-5.9-2.81c2.06-4.03,4.87-6.79,8.43-8.28,3.56-1.5,7.36-1.58,11.39-.26,5.06,1.65,8.59,4.64,10.58,8.95,1.99,4.31,1.98,9.55-.03,15.73-1.3,3.99-3.11,7.27-5.41,9.83s-5.05,4.15-8.24,4.76c-3.19.61-6.38.4-9.56-.64-4.01-1.31-6.97-3.4-8.86-6.27-1.89-2.87-2.58-6.28-2.08-10.25l6.4,1.05c-.23,2.67.19,4.88,1.25,6.61,1.06,1.74,2.64,2.94,4.73,3.63,3.16,1.03,6.09.74,8.8-.88,2.71-1.62,4.87-4.88,6.47-9.77,1.62-4.97,1.85-8.89.68-11.76-1.17-2.87-3.28-4.81-6.35-5.81-2.46-.8-4.76-.72-6.9.25-2.14.97-3.94,2.95-5.41,5.94Z" style="fill: #e6f7ff;"/>
  <path d="M184.74,493.57c-3.4,6.35-7.68,10.11-12.84,11.28-4.31.96-8.58.31-12.82-1.96-4.71-2.52-7.74-6.13-9.08-10.82-1.34-4.69-.55-9.76,2.36-15.2,2.36-4.41,4.88-7.53,7.56-9.35,2.68-1.82,5.65-2.75,8.93-2.8,3.28-.05,6.41.73,9.41,2.33,4.8,2.57,7.86,6.18,9.17,10.84,1.31,4.66.42,9.89-2.68,15.68ZM178.76,490.38c2.35-4.39,3.15-8.19,2.4-11.4-.75-3.21-2.57-5.59-5.48-7.15-2.88-1.54-5.87-1.73-8.96-.56-3.09,1.17-5.84,4.01-8.25,8.51-2.27,4.24-3.02,7.97-2.27,11.18.76,3.22,2.57,5.59,5.43,7.12,2.91,1.55,5.9,1.76,8.98.61,3.08-1.15,5.79-3.92,8.14-8.31Z" style="fill: #e6f7ff;"/>
  <path d="M157.32,456.06l-24.29,30.37-4.63-3.71,3.45-4.32c-4.9,1.55-9.46.64-13.67-2.73-1.83-1.46-3.25-3.14-4.26-5.02-1.01-1.88-1.47-3.67-1.38-5.34.09-1.68.57-3.37,1.44-5.08.57-1.11,1.81-2.85,3.72-5.23l14.94-18.67,5.15,4.12-14.78,18.47c-1.68,2.1-2.73,3.83-3.16,5.19-.43,1.36-.38,2.76.14,4.19.52,1.44,1.47,2.7,2.85,3.8,2.19,1.75,4.64,2.57,7.35,2.45,2.71-.12,5.61-2.12,8.72-6.01l13.27-16.59,5.15,4.12Z" style="fill: #e6f7ff;"/>
  <path d="M112.75,423.74l3.57-4.7c1.56,1.08,2.84,2.15,3.85,3.21,1.65,1.74,2.65,3.34,3.01,4.82.36,1.48.28,2.83-.25,4.07-.52,1.24-2.22,3.22-5.09,5.94l-16.23,15.4,3.33,3.51-3.72,3.53-3.33-3.51-6.99,6.63-7.38-2.03,9.86-9.35-4.56-4.81,3.72-3.53,4.56,4.81,16.5-15.65c1.36-1.29,2.16-2.21,2.39-2.75.23-.54.28-1.11.15-1.71-.13-.6-.53-1.25-1.21-1.96-.5-.53-1.23-1.17-2.18-1.92Z" style="fill: #e6f7ff;"/>
  <path d="M94.96,398.52c3.11.77,5.67,1.83,7.68,3.17,2.01,1.34,3.77,3.06,5.28,5.16,2.49,3.47,3.56,6.75,3.2,9.83-.36,3.08-1.86,5.57-4.5,7.46-1.55,1.11-3.21,1.77-5,1.98-1.78.21-3.47.03-5.06-.56-1.59-.59-3.1-1.45-4.52-2.59-1.03-.85-2.44-2.25-4.22-4.19-3.62-3.96-6.52-6.7-8.7-8.23-.75.51-1.22.83-1.42.97-2.18,1.57-3.36,3.17-3.52,4.83-.23,2.24.62,4.7,2.56,7.4,1.81,2.52,3.58,4.06,5.33,4.63,1.74.57,3.94.33,6.6-.7l3.04,5.75c-2.58,1.13-4.96,1.65-7.12,1.54-2.16-.1-4.35-.92-6.58-2.45-2.22-1.53-4.31-3.65-6.26-6.37-1.93-2.7-3.19-5.12-3.76-7.26-.57-2.14-.66-3.95-.27-5.44.39-1.48,1.21-2.91,2.45-4.28.78-.83,2.37-2.1,4.75-3.81l7.14-5.12c4.98-3.57,8.05-5.94,9.2-7.12,1.16-1.17,2.1-2.53,2.82-4.07l4.01,5.59c-.71,1.35-1.76,2.64-3.13,3.87ZM83.31,407.54c2.19,1.38,4.95,3.81,8.3,7.3,1.9,1.97,3.37,3.28,4.42,3.9,1.05.63,2.14.92,3.26.86,1.12-.05,2.15-.41,3.08-1.08,1.43-1.02,2.23-2.42,2.41-4.18.18-1.76-.48-3.69-1.98-5.77-1.48-2.06-3.25-3.58-5.3-4.54s-4.14-1.25-6.24-.88c-1.62.29-3.61,1.29-5.98,2.98l-1.96,1.41Z" style="fill: #e6f7ff;"/>
  <path d="M79.51,373.19l4.71-3.55c1.21,1.46,2.16,2.84,2.84,4.13,1.11,2.12,1.64,3.94,1.59,5.46-.06,1.52-.5,2.8-1.34,3.85-.84,1.05-3.01,2.5-6.51,4.34l-19.8,10.42,2.25,4.28-4.54,2.39-2.25-4.28-8.52,4.49-6.55-3.96,12.02-6.33-3.09-5.87,4.54-2.39,3.09,5.87,20.12-10.59c1.66-.88,2.68-1.54,3.05-2,.37-.46.57-.99.61-1.6.04-.61-.17-1.35-.63-2.21-.34-.65-.87-1.46-1.57-2.44Z" style="fill: #e6f7ff;"/>
  <path d="M64.92,375.22c-6.77,2.44-12.47,2.37-17.09-.22-3.84-2.17-6.58-5.52-8.21-10.04-1.81-5.03-1.65-9.73.5-14.12,2.15-4.38,6.12-7.62,11.93-9.71,4.71-1.7,8.67-2.33,11.87-1.89,3.21.44,6.04,1.74,8.51,3.9,2.47,2.16,4.27,4.84,5.42,8.03,1.85,5.12,1.7,9.85-.45,14.2-2.15,4.34-6.31,7.63-12.49,9.85ZM62.62,368.85c4.69-1.69,7.83-3.97,9.42-6.86,1.59-2.88,1.83-5.88.71-8.98-1.11-3.08-3.2-5.22-6.28-6.42-3.08-1.2-7.02-.93-11.82.8-4.52,1.63-7.58,3.89-9.17,6.79-1.59,2.9-1.83,5.87-.73,8.93,1.12,3.1,3.21,5.25,6.26,6.46,3.06,1.21,6.93.97,11.61-.72Z" style="fill: #e6f7ff;"/>
  <path d="M48.42,292.49l-6.63.11-.33-20.25,6.63-.11.33,20.25Z" style="fill: #e6f7ff;"/>
</svg>