<?xml version="1.0" encoding="UTF-8"?>
<svg id="Camada_1" data-name="Camada 1" xmlns="http://www.w3.org/2000/svg" viewBox="0 0 587.68 587.69">
  <defs>
    <style>
      .cls-1 {
        fill: #e6f7ff;
        font-family: SansSerifCollection, 'Sans Serif Collection';
        font-size: 81px;
      }
    </style>
  </defs>
  <text class="cls-1" transform="translate(79.87 280.34) rotate(-85.03)"><tspan x="0" y="0"> </tspan></text>
  <text class="cls-1" transform="translate(79.49 271.43) rotate(-78.09)"><tspan x="0" y="0">E</tspan></text>
  <text class="cls-1" transform="translate(87.57 230.28) rotate(-66.19)"><tspan x="0" y="0">n</tspan></text>
  <text class="cls-1" transform="translate(107.29 187.25) rotate(-56.3)"><tspan x="0" y="0">t</tspan></text>
  <text class="cls-1" transform="translate(122.11 164.52) rotate(-48.53)"><tspan x="0" y="0">r</tspan></text>
  <text class="cls-1" transform="translate(140.92 141.96) rotate(-39.15)"><tspan x="0" y="0">e</tspan></text>
  <text class="cls-1" transform="translate(175.41 115.1) rotate(-32.15)"><tspan x="0" y="0"> </tspan></text>
  <text class="cls-1" transform="translate(183.84 109.79) rotate(-29.49)"><tspan x="0" y="0"> </tspan></text>
  <text class="cls-1" transform="translate(190.92 104.41) rotate(-22.45)"><tspan x="0" y="0">e</tspan></text>
  <text class="cls-1" transform="translate(228.89 86.04) rotate(-7.27)"><tspan x="0" y="0">m</tspan></text>
  <text class="cls-1" transform="translate(301.28 79.58) rotate(3.37)"><tspan x="0" y="0"> </tspan></text>
  <text class="cls-1" transform="translate(311.23 80.15) rotate(6.01)"><tspan x="0" y="0"> </tspan></text>
  <text class="cls-1" transform="translate(320.31 80.25) rotate(12.19)"><tspan x="0" y="0">c</tspan></text>
  <text class="cls-1" transform="translate(355.66 87.1) rotate(23.2)"><tspan x="0" y="0">o</tspan></text>
  <text class="cls-1" transform="translate(397.89 104.77) rotate(35.54)"><tspan x="0" y="0">n</tspan></text>
  <text class="cls-1" transform="translate(436.04 132.83) rotate(45.35)"><tspan x="0" y="0">t</tspan></text>
  <text class="cls-1" transform="translate(455.48 151.3) rotate(54.6)"><tspan x="0" y="0">a</tspan></text>
  <text class="cls-1" transform="translate(479.96 186.52) rotate(63.89)"><tspan x="0" y="0">t</tspan></text>
  <text class="cls-1" transform="translate(492.67 210.02) rotate(73.69)"><tspan x="0" y="0">o</tspan></text>
  <text class="cls-1" transform="translate(504.77 255.34) rotate(81.15)"><tspan x="0" y="0"> </tspan></text>
  <text class="cls-1" transform="translate(506.32 265.16) rotate(83.81)"><tspan x="0" y="0"> </tspan></text>
  <text class="cls-1" transform="translate(507.68 274.45) rotate(88.33)"><tspan x="0" y="0">-</tspan></text>
  <text class="cls-1" transform="translate(508.15 299.31) rotate(92.85)"><tspan x="0" y="0"> </tspan></text>
  <text class="cls-1" transform="translate(507.67 309.27) rotate(95.49)"><tspan x="0" y="0"> </tspan></text>
  <text class="cls-1" transform="translate(507.98 318.18) rotate(102.43)"><tspan x="0" y="0">E</tspan></text>
  <text class="cls-1" transform="translate(499.52 359.27) rotate(114.34)"><tspan x="0" y="0">n</tspan></text>
  <text class="cls-1" transform="translate(479.41 402.11) rotate(124.21)"><tspan x="0" y="0">t</tspan></text>
  <text class="cls-1" transform="translate(464.38 424.72) rotate(131.98)"><tspan x="0" y="0">r</tspan></text>
  <text class="cls-1" transform="translate(445.35 447.11) rotate(141.38)"><tspan x="0" y="0">e</tspan></text>
  <text class="cls-1" transform="translate(410.62 473.65) rotate(148.37)"><tspan x="0" y="0"> </tspan></text>
  <text class="cls-1" transform="translate(402.16 478.88) rotate(151.03)"><tspan x="0" y="0"> </tspan></text>
  <text class="cls-1" transform="translate(395.02 484.2) rotate(158.07)"><tspan x="0" y="0">e</tspan></text>
  <text class="cls-1" transform="translate(356.89 502.21) rotate(173.25)"><tspan x="0" y="0">m</tspan></text>
  <text class="cls-1" transform="translate(284.43 508.02) rotate(-176.11)"><tspan x="0" y="0"> </tspan></text>
  <text class="cls-1" transform="translate(274.5 507.36) rotate(-173.47)"><tspan x="0" y="0"> </tspan></text>
  <text class="cls-1" transform="translate(265.43 507.18) rotate(-167.29)"><tspan x="0" y="0">c</tspan></text>
  <text class="cls-1" transform="translate(230.15 500.01) rotate(-156.28)"><tspan x="0" y="0">o</tspan></text>
  <text class="cls-1" transform="translate(188.06 481.95) rotate(-143.94)"><tspan x="0" y="0">n</tspan></text>
  <text class="cls-1" transform="translate(150.17 453.54) rotate(-134.13)"><tspan x="0" y="0">t</tspan></text>
  <text class="cls-1" transform="translate(130.89 434.9) rotate(-124.88)"><tspan x="0" y="0">a</tspan></text>
  <text class="cls-1" transform="translate(106.74 399.46) rotate(-115.59)"><tspan x="0" y="0">t</tspan></text>
  <text class="cls-1" transform="translate(94.25 375.85) rotate(-105.79)"><tspan x="0" y="0">o</tspan></text>
  <text class="cls-1" transform="translate(82.56 330.43) rotate(-98.33)"><tspan x="0" y="0"> </tspan></text>
  <text class="cls-1" transform="translate(81.11 320.61) rotate(-95.67)"><tspan x="0" y="0"> </tspan></text>
  <text class="cls-1" transform="translate(79.83 311.33) rotate(-91.17)"><tspan x="0" y="0">-</tspan></text>
</svg>