<svg width="256" height="256" viewBox="0 0 256 256" fill="none" xmlns="http://www.w3.org/2000/svg">
<rect width="256" height="256" rx="16" fill="#E6F7FF"/>
<path d="M156.733 101.042C156.161 100.433 155.569 99.8418 154.96 99.2689L128 30L101.04 99.2689C100.431 99.8403 99.8407 100.431 99.2696 101.04L30 127.999L99.2666 154.959C99.8395 155.568 100.431 156.16 101.04 156.733L128 226L154.957 156.735C155.568 156.162 156.16 155.57 156.734 154.96L226 128.001L156.733 101.042ZM128 145.517C118.327 145.517 110.484 137.673 110.484 127.999C110.484 118.326 118.327 110.484 128 110.484C137.673 110.484 145.515 118.326 145.515 127.999C145.515 137.673 137.673 145.517 128 145.517Z" fill="#006598"/>
</svg>
