<svg width="125" height="32" viewBox="0 0 125 32" fill="none" xmlns="http://www.w3.org/2000/svg">
<g clip-path="url(#clip0_365_87)">
<path d="M64.1179 3.1329C66.4751 4.37922 68.3061 6.15325 69.5998 8.45501C70.8826 10.7568 71.5295 13.429 71.5295 16.4718C71.5295 19.5147 70.8826 22.1757 69.5998 24.455C68.3061 26.7343 66.4861 28.4859 64.1179 29.7322C61.7496 30.9785 59.0196 31.5961 55.9059 31.5961H45.5449V1.25781H55.9059C59.0196 1.25781 61.7606 1.87536 64.1179 3.12167V3.1329ZM62.9009 23.8262C64.6003 22.0859 65.4445 19.6382 65.4445 16.4831C65.4445 13.328 64.6003 10.8578 62.9009 9.07255C61.2014 7.28729 58.8003 6.40027 55.6866 6.40027H51.4874V26.4424H55.6866C58.8003 26.4424 61.2014 25.5778 62.9009 23.8375V23.8262Z" fill="#E6F7FF"/>
<path d="M97.6674 21.3899H80.476C80.6185 23.1302 81.2106 24.4888 82.2631 25.4769C83.3047 26.465 84.5984 26.959 86.1224 26.959C88.3262 26.959 89.905 25.9934 90.8369 24.0509H97.2508C96.5711 26.3751 95.2663 28.2727 93.3476 29.766C91.418 31.2593 89.0607 32.0004 86.254 32.0004C83.4472 32.0004 81.9561 31.4839 80.158 30.4509C78.3599 29.4179 76.9565 27.9695 75.9588 26.0832C74.9501 24.1969 74.4458 22.0299 74.4458 19.5597C74.4458 17.0895 74.9392 14.8776 75.9259 12.9913C76.9127 11.105 78.3051 9.65653 80.0922 8.64601C81.8794 7.63548 83.9296 7.13022 86.243 7.13022C88.5564 7.13022 90.4861 7.62425 92.2513 8.61232C94.0164 9.60039 95.3979 10.9927 96.3737 12.8116C97.3495 14.6193 97.8429 16.7078 97.8429 19.0544C97.8429 21.4011 97.788 20.705 97.6784 21.4011L97.6674 21.3899ZM91.6811 17.3029C91.6482 15.7421 91.1 14.4846 90.0256 13.5414C88.9511 12.5983 87.6354 12.1267 86.0786 12.1267C84.5217 12.1267 83.3705 12.5871 82.3618 13.4965C81.3531 14.406 80.7391 15.6748 80.5198 17.3029H91.6811Z" fill="#E6F7FF"/>
<path d="M111.976 26.0048L117.918 7.52344H124.244L115.539 31.6076H108.325L99.6631 7.52344H106.033L111.976 26.0048Z" fill="#E6F7FF"/>
<path d="M40.5448 5.91747V22.9841C40.5448 25.3645 39.0318 27.3855 36.9267 28.0817C36.4224 28.2501 35.8742 28.3399 35.315 28.3399H8.51911C5.63559 28.3399 3.28931 25.9371 3.28931 22.9841V5.91747C3.28931 5.25501 3.39895 4.62624 3.61823 4.05361C4.36377 2.02133 6.2715 0.572906 8.51911 0.572906H35.315C38.1985 0.572906 40.5448 2.97571 40.5448 5.9287V5.91747Z" stroke="#006598" stroke-miterlimit="10"/>
<path d="M2.87207 4.93033C2.8187 5.24779 2.78906 5.57398 2.78906 5.90591V22.9723C2.78913 26.1899 5.34799 28.8275 8.51855 28.8278H35.3145C35.5533 28.8278 35.7908 28.8121 36.0244 28.7829C35.1836 30.1481 33.7075 31.0504 32.0254 31.0504H5.22949C2.63352 31.0503 0.500178 28.8828 0.5 26.195V9.13931C0.5 7.3356 1.45571 5.7677 2.87207 4.93033Z" fill="#006598" stroke="#006598"/>
<path d="M8.5189 11.4905C8.97938 10.6259 9.62626 9.95223 10.4595 9.46942C11.2928 8.98661 12.2357 8.73959 13.2882 8.73959C14.582 8.73959 15.6893 9.07644 16.6103 9.77258C17.5313 10.4687 18.1452 11.4231 18.4632 12.6245H15.5468C15.3275 12.1642 15.0205 11.8161 14.6258 11.5691C14.2311 11.322 13.7706 11.2098 13.2663 11.2098C12.455 11.2098 11.7862 11.5017 11.2818 12.0856C10.7775 12.6694 10.5253 13.4442 10.5253 14.421C10.5253 15.3978 10.7884 16.1726 11.2928 16.7564C11.7971 17.3403 12.4659 17.621 13.2773 17.621C13.7816 17.621 14.2311 17.4975 14.6368 17.2505C15.0315 17.0035 15.3385 16.6554 15.5578 16.1838H18.4742C18.1672 17.3852 17.5532 18.3284 16.6432 19.0245C15.7222 19.7206 14.6258 20.0687 13.3321 20.0799C12.2795 20.0799 11.3366 19.8442 10.5034 19.3613C9.67011 18.8785 9.02324 18.2161 8.55179 17.3628C8.08034 16.5094 7.8501 15.5326 7.8501 14.4322C7.8501 13.3319 8.08034 12.355 8.54083 11.4905H8.5189Z" fill="#E6F7FF"/>
<path d="M24.91 17.6635V19.9653H23.5724C22.6076 19.9653 21.862 19.7295 21.3248 19.2467C20.7876 18.7639 20.5135 17.9779 20.5135 16.8888V13.3632C20.5025 13.3632 19.45 13.3632 19.45 13.3632V11.1063H20.5025V8.95053H23.1448V11.1063H24.8881V13.3632H23.1558V16.9225C23.1667 17.1919 23.2325 17.3828 23.3531 17.4951C23.4737 17.6074 23.682 17.6635 23.9781 17.6635H24.921H24.91Z" fill="#E6F7FF"/>
<path d="M30.1729 11.4214C30.6334 11.1407 31.1487 10.9948 31.7188 10.9948V13.8692H30.9952C30.3374 13.8692 29.844 14.0151 29.5151 14.3071C29.1861 14.599 29.0217 15.1155 29.0217 15.8453V19.9548C29.0326 19.9548 26.3903 19.9548 26.3903 19.9548L26.3684 11.1071H29.0217V12.5779C29.3287 12.0951 29.7124 11.7021 30.1839 11.4214H30.1729Z" fill="#E6F7FF"/>
<path d="M35.633 8.1875L35.6659 19.9321H33.0126L32.9797 8.19873H35.633V8.1875Z" fill="#E6F7FF"/>
</g>
<defs>
<clipPath id="clip0_365_87">
<rect width="125" height="32" fill="white"/>
</clipPath>
</defs>
</svg>
