<svg width="1230" height="257" viewBox="0 0 1230 257" fill="none" xmlns="http://www.w3.org/2000/svg">
<path d="M195.768 83.32C195.768 106.159 188.992 124.857 175.439 139.414C162.136 153.72 143.815 162.379 120.473 165.391C125.744 179.195 134.528 189.987 146.826 197.767C159.125 205.296 174.184 209.061 192.004 209.061H203.298V252.355H190.121C172.803 252.355 156.866 249.469 142.309 243.696C127.751 237.924 115.202 229.893 104.661 219.602C94.1194 209.061 85.9624 196.638 80.1898 182.332C74.4171 167.775 71.5308 151.838 71.5308 134.52V125.108H102.778C117.085 125.108 128.63 121.469 137.414 114.191C146.199 106.661 150.591 96.371 150.591 83.32C150.591 70.52 146.324 60.3553 137.791 52.8259C129.257 45.2965 117.587 41.5318 102.778 41.5318H45.1773V252.355H0V0.119995H102.778C117.085 0.119995 129.885 2.12783 141.179 6.14351C152.725 9.90822 162.513 15.4298 170.544 22.7082C178.576 29.9867 184.725 38.771 188.992 49.0612C193.51 59.1004 195.768 70.52 195.768 83.32Z" fill="#CEE6F2"/>
<path d="M227.681 162.002C227.681 148.449 229.94 135.9 234.457 124.355C239.226 112.81 245.752 102.896 254.034 94.6141C262.317 86.0808 272.105 79.5553 283.4 75.0376C294.945 70.269 307.494 67.8847 321.047 67.8847C334.601 67.8847 347.024 70.269 358.319 75.0376C369.864 79.5553 379.778 86.0808 388.06 94.6141C396.343 102.896 402.743 112.81 407.261 124.355C412.029 135.9 414.414 148.449 414.414 162.002C414.414 163.759 414.288 165.516 414.037 167.273C414.037 168.779 413.786 170.787 413.284 173.296H269.846C272.105 186.096 277.627 196.261 286.411 203.791C295.447 211.069 306.992 214.708 321.047 214.708C330.585 214.708 338.993 212.951 346.271 209.438C353.801 205.924 359.825 200.779 364.342 194.002H409.52C406.508 203.54 402.241 212.198 396.719 219.979C391.198 227.508 384.547 234.034 376.766 239.555C369.236 244.826 360.703 248.967 351.166 251.979C341.879 254.74 331.84 256.12 321.047 256.12C307.494 256.12 294.945 253.861 283.4 249.344C272.105 244.575 262.317 238.049 254.034 229.767C245.752 221.485 239.226 211.571 234.457 200.026C229.94 188.481 227.681 175.806 227.681 162.002ZM370.366 143.179C366.852 132.638 360.828 124.355 352.295 118.332C343.761 112.308 333.346 109.296 321.047 109.296C308.498 109.296 297.957 112.308 289.423 118.332C280.89 124.355 274.992 132.638 271.729 143.179H370.366Z" fill="#CEE6F2"/>
<path d="M597.256 137.532H555.843C555.843 128.496 552.204 121.218 544.925 115.696C537.647 110.175 527.984 107.414 515.936 107.414C506.148 107.414 497.991 109.547 491.465 113.814C485.191 117.83 482.053 122.975 482.053 129.249C482.053 135.524 485.191 141.045 491.465 145.814C497.74 150.332 505.52 154.849 514.807 159.367C524.344 163.885 534.509 168.653 545.302 173.673C556.345 178.693 566.51 184.716 575.796 191.744C585.334 198.771 593.24 207.179 599.514 216.967C605.789 226.755 608.926 238.551 608.926 252.355H567.514C567.514 243.069 564.376 235.414 558.102 229.391C551.827 223.116 543.921 217.469 534.384 212.449C525.097 207.43 514.932 202.661 503.889 198.144C493.097 193.375 482.932 187.979 473.394 181.955C464.108 175.932 456.327 168.779 450.053 160.496C443.778 151.963 440.641 141.547 440.641 129.249C440.641 120.465 442.523 112.308 446.288 104.779C450.304 97.2494 455.7 90.7239 462.476 85.2023C469.504 79.6808 477.661 75.4141 486.948 72.4023C496.485 69.3906 506.901 67.8847 518.195 67.8847C529.991 67.8847 540.658 69.6416 550.196 73.1553C559.984 76.418 568.267 81.1867 575.043 87.4612C582.071 93.4847 587.467 100.763 591.232 109.296C595.248 117.83 597.256 127.242 597.256 137.532ZM466.994 203.414C474.524 203.414 480.798 205.924 485.818 210.944C490.838 215.963 493.348 222.238 493.348 229.767C493.348 237.296 490.838 243.571 485.818 248.591C480.798 253.61 474.524 256.12 466.994 256.12C459.465 256.12 453.19 253.61 448.17 248.591C443.151 243.571 440.641 237.296 440.641 229.767C440.641 222.238 443.151 215.963 448.17 210.944C453.19 205.924 459.465 203.414 466.994 203.414Z" fill="#CEE6F2"/>
<path d="M622.174 162.002C622.174 148.449 624.432 135.9 628.95 124.355C633.719 112.81 640.245 102.896 648.527 94.6141C656.81 86.0808 666.598 79.5553 677.892 75.0376C689.438 70.269 701.987 67.8847 715.54 67.8847C729.093 67.8847 741.517 70.269 752.811 75.0376C764.357 79.5553 774.271 86.0808 782.553 94.6141C790.836 102.896 797.236 112.81 801.754 124.355C806.522 135.9 808.907 148.449 808.907 162.002C808.907 163.759 808.781 165.516 808.53 167.273C808.53 168.779 808.279 170.787 807.777 173.296H664.339C666.598 186.096 672.12 196.261 680.904 203.791C689.94 211.069 701.485 214.708 715.54 214.708C725.078 214.708 733.486 212.951 740.764 209.438C748.294 205.924 754.317 200.779 758.835 194.002H804.012C801.001 203.54 796.734 212.198 791.212 219.979C785.691 227.508 779.039 234.034 771.259 239.555C763.729 244.826 755.196 248.967 745.658 251.979C736.372 254.74 726.332 256.12 715.54 256.12C701.987 256.12 689.438 253.861 677.892 249.344C666.598 244.575 656.81 238.049 648.527 229.767C640.245 221.485 633.719 211.571 628.95 200.026C624.432 188.481 622.174 175.806 622.174 162.002ZM764.859 143.179C761.345 132.638 755.321 124.355 746.788 118.332C738.254 112.308 727.838 109.296 715.54 109.296C702.991 109.296 692.45 112.308 683.916 118.332C675.383 124.355 669.484 132.638 666.222 143.179H764.859Z" fill="#CEE6F2"/>
<path d="M974.43 163.885V139.414H1015.84V189.108C1015.84 197.14 1018.1 203.414 1022.62 207.932C1027.39 212.449 1033.91 214.708 1042.2 214.708V256.12C1030.65 256.12 1020.11 253.861 1010.57 249.344C1001.29 244.826 993.756 238.551 987.984 230.52C979.701 238.551 970.038 244.826 958.995 249.344C948.202 253.861 936.406 256.12 923.606 256.12C910.806 256.12 898.758 253.736 887.464 248.967C876.17 244.198 866.381 237.673 858.099 229.391C849.816 221.108 843.291 211.32 838.522 200.026C833.753 188.732 831.369 176.685 831.369 163.885C831.369 150.834 833.753 138.787 838.522 127.744C843.291 116.449 849.816 106.661 858.099 98.3788C866.381 90.0965 876.17 83.571 887.464 78.8023C898.758 74.0337 910.806 71.6494 923.606 71.6494H1015.84V113.061H923.606C916.578 113.061 909.927 114.442 903.653 117.202C897.629 119.712 892.233 123.226 887.464 127.744C882.946 132.261 879.307 137.657 876.546 143.932C874.036 149.955 872.781 156.606 872.781 163.885C872.781 170.912 874.036 177.563 876.546 183.838C879.307 190.112 882.946 195.508 887.464 200.026C892.233 204.544 897.629 208.183 903.653 210.944C909.927 213.453 916.578 214.708 923.606 214.708C930.884 214.708 937.536 213.453 943.559 210.944C949.834 208.183 955.23 204.544 959.748 200.026C964.265 195.508 967.779 190.112 970.289 183.838C973.05 177.563 974.43 170.912 974.43 163.885Z" fill="#CEE6F2"/>
<path d="M1145.67 216.591C1158.47 216.591 1168.76 212.7 1176.54 204.92C1184.57 197.14 1188.59 186.849 1188.59 174.049V71.6494H1230V172.544C1230 185.344 1227.99 196.889 1223.98 207.179C1219.96 217.469 1214.31 226.253 1207.03 233.532C1199.76 240.81 1190.85 246.457 1180.3 250.473C1170.01 254.238 1158.47 256.12 1145.67 256.12C1132.87 256.12 1121.2 254.238 1110.66 250.473C1100.37 246.457 1091.46 240.81 1083.93 233.532C1076.65 226.253 1071 217.469 1066.99 207.179C1062.97 196.889 1060.96 185.344 1060.96 172.544V71.6494H1102.37V174.049C1102.37 186.849 1106.39 197.14 1114.42 204.92C1122.45 212.7 1132.87 216.591 1145.67 216.591Z" fill="#CEE6F2"/>
</svg>
