<svg width="184" height="32" viewBox="0 0 184 32" fill="none" xmlns="http://www.w3.org/2000/svg">
<path d="M24.1925 10.4C24.1925 13.2549 23.3551 15.5922 21.6802 17.4118C20.0364 19.2 17.7722 20.2824 14.8877 20.6588C15.539 22.3843 16.6246 23.7333 18.1444 24.7059C19.6642 25.6471 21.5251 26.1176 23.7273 26.1176H25.123V31.5294H23.4947C21.3546 31.5294 19.385 31.1686 17.5861 30.4471C15.7872 29.7255 14.2364 28.7216 12.9337 27.4353C11.631 26.1176 10.623 24.5647 9.90963 22.7765C9.19626 20.9569 8.83958 18.9647 8.83958 16.8V15.6235H12.7011C14.469 15.6235 15.8957 15.1686 16.9813 14.2588C18.0669 13.3176 18.6096 12.0314 18.6096 10.4C18.6096 8.8 18.0824 7.52941 17.0278 6.58823C15.9733 5.64706 14.531 5.17647 12.7011 5.17647H5.58289V31.5294H0V0H12.7011C14.469 0 16.0508 0.25098 17.4465 0.75294C18.8733 1.22353 20.0829 1.91372 21.0754 2.82353C22.0679 3.73333 22.8278 4.83137 23.3551 6.11765C23.9134 7.37255 24.1925 8.8 24.1925 10.4Z" fill="#308FBF"/>
<path d="M28.1362 20.2353C28.1362 18.5412 28.4153 16.9725 28.9736 15.5294C29.5629 14.0863 30.3693 12.8471 31.3929 11.8118C32.4164 10.7451 33.626 9.92941 35.0217 9.36471C36.4485 8.76863 37.9993 8.47059 39.6741 8.47059C41.349 8.47059 42.8843 8.76863 44.28 9.36471C45.7068 9.92941 46.9319 10.7451 47.9554 11.8118C48.979 12.8471 49.7699 14.0863 50.3282 15.5294C50.9175 16.9725 51.2121 18.5412 51.2121 20.2353C51.2121 20.4549 51.1966 20.6745 51.1656 20.8941C51.1656 21.0824 51.1346 21.3333 51.0725 21.6471H33.3469C33.626 23.2471 34.3084 24.5176 35.3939 25.4588C36.5105 26.3686 37.9372 26.8235 39.6741 26.8235C40.8528 26.8235 41.8918 26.6039 42.7913 26.1647C43.7217 25.7255 44.4661 25.0824 45.0244 24.2353H50.6073C50.2351 25.4275 49.7078 26.5098 49.0255 27.4824C48.3431 28.4235 47.5212 29.2392 46.5597 29.9294C45.6292 30.5882 44.5747 31.1059 43.3961 31.4824C42.2485 31.8275 41.0078 32 39.6741 32C37.9993 32 36.4485 31.7176 35.0217 31.1529C33.626 30.5569 32.4164 29.7412 31.3929 28.7059C30.3693 27.6706 29.5629 26.4314 28.9736 24.9882C28.4153 23.5451 28.1362 21.9608 28.1362 20.2353ZM45.7688 17.8824C45.3346 16.5647 44.5902 15.5294 43.5356 14.7765C42.4811 14.0235 41.1939 13.6471 39.6741 13.6471C38.1233 13.6471 36.8207 14.0235 35.7661 14.7765C34.7116 15.5294 33.9827 16.5647 33.5795 17.8824H45.7688Z" fill="#E6F7FF"/>
<path d="M73.8072 17.1765H68.6895C68.6895 16.0471 68.2398 15.1373 67.3403 14.4471C66.4409 13.7569 65.2468 13.4118 63.758 13.4118C62.5484 13.4118 61.5403 13.6784 60.7339 14.2118C59.9585 14.7137 59.5708 15.3569 59.5708 16.1412C59.5708 16.9255 59.9585 17.6157 60.7339 18.2118C61.5093 18.7765 62.4708 19.3412 63.6184 19.9059C64.797 20.4706 66.0532 21.0667 67.3869 21.6941C68.7516 22.3216 70.0077 23.0745 71.1553 23.9529C72.3339 24.8314 73.3109 25.8824 74.0863 27.1059C74.8617 28.3294 75.2494 29.8039 75.2494 31.5294H70.1318C70.1318 30.3686 69.7441 29.4118 68.9687 28.6588C68.1933 27.8745 67.2163 27.1686 66.0377 26.5412C64.8901 25.9137 63.6339 25.3176 62.2692 24.7529C60.9355 24.1569 59.6794 23.4824 58.5008 22.7294C57.3532 21.9765 56.3917 21.0824 55.6163 20.0471C54.8409 18.9804 54.4532 17.6784 54.4532 16.1412C54.4532 15.0431 54.6858 14.0235 55.151 13.0824C55.6473 12.1412 56.3141 11.3255 57.1516 10.6353C58.02 9.9451 59.028 9.41176 60.1756 9.03529C61.3542 8.65882 62.6414 8.47059 64.0371 8.47059C65.4949 8.47059 66.8131 8.6902 67.9917 9.12941C69.2013 9.53725 70.2248 10.1333 71.0623 10.9176C71.9307 11.6706 72.5976 12.5804 73.0628 13.6471C73.5591 14.7137 73.8072 15.8902 73.8072 17.1765ZM57.7099 25.4118C58.6403 25.4118 59.4157 25.7255 60.0361 26.3529C60.6564 26.9804 60.9665 27.7647 60.9665 28.7059C60.9665 29.6471 60.6564 30.4314 60.0361 31.0588C59.4157 31.6863 58.6403 32 57.7099 32C56.7794 32 56.004 31.6863 55.3837 31.0588C54.7633 30.4314 54.4532 29.6471 54.4532 28.7059C54.4532 27.7647 54.7633 26.9804 55.3837 26.3529C56.004 25.7255 56.7794 25.4118 57.7099 25.4118Z" fill="#E6F7FF"/>
<path d="M76.8865 20.2353C76.8865 18.5412 77.1656 16.9725 77.7239 15.5294C78.3132 14.0863 79.1197 12.8471 80.1432 11.8118C81.1667 10.7451 82.3763 9.92941 83.7721 9.36471C85.1988 8.76863 86.7496 8.47059 88.4245 8.47059C90.0993 8.47059 91.6346 8.76863 93.0304 9.36471C94.4571 9.92941 95.6822 10.7451 96.7058 11.8118C97.7293 12.8471 98.5202 14.0863 99.0785 15.5294C99.6678 16.9725 99.9625 18.5412 99.9625 20.2353C99.9625 20.4549 99.9469 20.6745 99.9159 20.8941C99.9159 21.0824 99.8849 21.3333 99.8229 21.6471H82.0972C82.3764 23.2471 83.0587 24.5176 84.1443 25.4588C85.2608 26.3686 86.6876 26.8235 88.4245 26.8235C89.6031 26.8235 90.6421 26.6039 91.5416 26.1647C92.4721 25.7255 93.2165 25.0824 93.7747 24.2353H99.3576C98.9854 25.4275 98.4582 26.5098 97.7758 27.4824C97.0935 28.4235 96.2715 29.2392 95.31 29.9294C94.3796 30.5882 93.325 31.1059 92.1464 31.4824C90.9988 31.8275 89.7582 32 88.4245 32C86.7496 32 85.1988 31.7176 83.7721 31.1529C82.3763 30.5569 81.1667 29.7412 80.1432 28.7059C79.1197 27.6706 78.3132 26.4314 77.7239 24.9882C77.1656 23.5451 76.8865 21.9608 76.8865 20.2353ZM94.5191 17.8824C94.0849 16.5647 93.3405 15.5294 92.286 14.7765C91.2314 14.0235 89.9443 13.6471 88.4245 13.6471C86.8737 13.6471 85.571 14.0235 84.5165 14.7765C83.4619 15.5294 82.733 16.5647 82.3298 17.8824H94.5191Z" fill="#E6F7FF"/>
<path d="M120.417 20.4706V17.4118H125.535V23.6235C125.535 24.6275 125.814 25.4118 126.373 25.9765C126.962 26.5412 127.768 26.8235 128.792 26.8235V32C127.365 32 126.062 31.7176 124.884 31.1529C123.736 30.5882 122.806 29.8039 122.092 28.8C121.069 29.8039 119.875 30.5882 118.51 31.1529C117.176 31.7176 115.718 32 114.137 32C112.555 32 111.066 31.702 109.67 31.1059C108.275 30.5098 107.065 29.6941 106.041 28.6588C105.018 27.6235 104.212 26.4 103.622 24.9882C103.033 23.5765 102.738 22.0706 102.738 20.4706C102.738 18.8392 103.033 17.3333 103.622 15.9529C104.212 14.5412 105.018 13.3176 106.041 12.2824C107.065 11.2471 108.275 10.4314 109.67 9.83529C111.066 9.23922 112.555 8.94118 114.137 8.94118H125.535V14.1176H114.137C113.268 14.1176 112.446 14.2902 111.671 14.6353C110.927 14.949 110.26 15.3882 109.67 15.9529C109.112 16.5176 108.662 17.1922 108.321 17.9765C108.011 18.7294 107.856 19.5608 107.856 20.4706C107.856 21.349 108.011 22.1804 108.321 22.9647C108.662 23.749 109.112 24.4235 109.67 24.9882C110.26 25.5529 110.927 26.0078 111.671 26.3529C112.446 26.6667 113.268 26.8235 114.137 26.8235C115.036 26.8235 115.858 26.6667 116.602 26.3529C117.378 26.0078 118.045 25.5529 118.603 24.9882C119.161 24.4235 119.595 23.749 119.906 22.9647C120.247 22.1804 120.417 21.349 120.417 20.4706Z" fill="#E6F7FF"/>
<path d="M141.579 27.0588C143.16 27.0588 144.432 26.5725 145.394 25.6C146.386 24.6275 146.882 23.3412 146.882 21.7412V8.94118H152V21.5529C152 23.1529 151.752 24.5961 151.256 25.8824C150.759 27.1686 150.062 28.2667 149.162 29.1765C148.263 30.0863 147.161 30.7922 145.859 31.2941C144.587 31.7647 143.16 32 141.579 32C139.997 32 138.555 31.7647 137.252 31.2941C135.98 30.7922 134.879 30.0863 133.949 29.1765C133.049 28.2667 132.351 27.1686 131.855 25.8824C131.359 24.5961 131.111 23.1529 131.111 21.5529V8.94118H136.228V21.7412C136.228 23.3412 136.725 24.6275 137.717 25.6C138.71 26.5725 139.997 27.0588 141.579 27.0588Z" fill="#E6F7FF"/>
<path d="M164.027 11.5616C163.971 11.0218 163.719 10.5925 163.272 10.2737C162.825 9.95486 162.263 9.79545 161.586 9.79545C161.11 9.79545 160.689 9.87279 160.326 10.0275C159.966 10.1821 159.682 10.3968 159.476 10.6714C159.272 10.9429 159.17 11.2522 159.17 11.5994C159.17 11.8551 159.229 12.0792 159.346 12.2718C159.462 12.4643 159.619 12.6301 159.816 12.7689C160.016 12.9047 160.236 13.0215 160.476 13.1193C160.719 13.2172 160.964 13.2992 161.211 13.3655L162.292 13.6591C162.618 13.7443 162.945 13.8532 163.272 13.9858C163.599 14.1184 163.897 14.2857 164.167 14.4877C164.441 14.6866 164.659 14.9312 164.823 15.2216C164.989 15.5088 165.073 15.8545 165.073 16.2585C165.073 16.7762 164.931 17.2418 164.648 17.6553C164.364 18.0688 163.957 18.3971 163.427 18.6402C162.897 18.88 162.262 19 161.521 19C160.824 19 160.219 18.8911 159.706 18.6733C159.192 18.4523 158.789 18.1477 158.495 17.7595C158.202 17.3712 158.037 16.9214 158 16.41H158.96C158.994 16.792 159.127 17.1155 159.361 17.3807C159.594 17.6458 159.897 17.8479 160.271 17.9867C160.644 18.1225 161.061 18.1903 161.521 18.1903C162.032 18.1903 162.485 18.1098 162.882 17.9489C163.282 17.7847 163.595 17.5574 163.822 17.267C164.052 16.9735 164.167 16.6326 164.167 16.2443C164.167 15.916 164.077 15.6414 163.897 15.4205C163.717 15.1963 163.465 15.0085 163.142 14.857C162.822 14.7055 162.45 14.5713 162.027 14.4545L160.801 14.1136C159.997 13.8864 159.374 13.5723 158.93 13.1714C158.487 12.7705 158.265 12.2592 158.265 11.6373C158.265 11.1165 158.412 10.6588 158.705 10.2642C159.002 9.86648 159.402 9.55713 159.906 9.33617C160.413 9.11206 160.981 9 161.611 9C162.248 9 162.812 9.11048 163.302 9.33144C163.792 9.5524 164.181 9.85701 164.467 10.2453C164.758 10.6304 164.913 11.0691 164.933 11.5616H164.027Z" fill="#E6F7FF"/>
<path d="M166.703 9.93276V9.13731H174.131V9.93276H170.885V18.8343H169.95V9.93276H166.703Z" fill="#E6F7FF"/>
<path d="M183.065 9.13731H184V15.5578C184 16.2175 183.837 16.8078 183.51 17.3286C183.183 17.8463 182.728 18.2551 182.144 18.5549C181.564 18.8516 180.889 19 180.119 19C179.352 19 178.676 18.8501 178.093 18.5502C177.509 18.2503 177.054 17.8415 176.727 17.3239C176.4 16.8062 176.237 16.2175 176.237 15.5578V9.13731H177.172V15.4962C177.172 16.0107 177.294 16.47 177.538 16.8741C177.781 17.2749 178.123 17.5906 178.563 17.821C179.006 18.0515 179.525 18.1667 180.119 18.1667C180.712 18.1667 181.231 18.0515 181.674 17.821C182.118 17.5906 182.459 17.2749 182.699 16.8741C182.943 16.47 183.065 16.0107 183.065 15.4962V9.13731Z" fill="#E6F7FF"/>
<path d="M160.988 31.8669H158V22.1331H161.168C162.141 22.1331 162.972 22.3264 163.663 22.7129C164.357 23.0995 164.888 23.654 165.257 24.3764C165.625 25.0989 165.81 25.9655 165.81 26.9762C165.81 27.9965 165.62 28.8726 165.242 29.6046C164.867 30.3333 164.319 30.8926 163.598 31.2823C162.881 31.6721 162.011 31.8669 160.988 31.8669ZM158.931 31.0684H160.934C161.81 31.0684 162.544 30.9037 163.135 30.5741C163.726 30.2446 164.169 29.7741 164.465 29.1625C164.76 28.551 164.908 27.8222 164.908 26.9762C164.905 26.1366 164.759 25.4141 164.47 24.8089C164.184 24.2037 163.759 23.7395 163.195 23.4163C162.634 23.0932 161.94 22.9316 161.113 22.9316H158.931V31.0684Z" fill="#E6F7FF"/>
<path d="M170.962 22.1331V31.8669H170.031V22.1331H170.962Z" fill="#E6F7FF"/>
<path d="M184 27C184 28.0139 183.811 28.8964 183.432 29.6473C183.054 30.3951 182.532 30.975 181.868 31.3869C181.208 31.7956 180.447 32 179.587 32C178.727 32 177.965 31.7956 177.301 31.3869C176.64 30.975 176.121 30.3951 175.742 29.6473C175.367 28.8964 175.179 28.0139 175.179 27C175.179 25.9861 175.367 25.1052 175.742 24.3574C176.121 23.6065 176.642 23.0266 177.306 22.6179C177.97 22.206 178.731 22 179.587 22C180.447 22 181.208 22.206 181.868 22.6179C182.532 23.0266 183.054 23.6065 183.432 24.3574C183.811 25.1052 184 25.9861 184 27ZM183.094 27C183.094 26.1286 182.941 25.3824 182.635 24.7614C182.33 24.1372 181.913 23.6603 181.385 23.3308C180.857 23.0013 180.258 22.8365 179.587 22.8365C178.92 22.8365 178.322 23.0013 177.794 23.3308C177.266 23.6603 176.848 24.1356 176.539 24.7567C176.234 25.3777 176.081 26.1255 176.081 27C176.081 27.8714 176.234 28.6176 176.539 29.2386C176.845 29.8596 177.261 30.3365 177.789 30.6692C178.317 30.9987 178.916 31.1635 179.587 31.1635C180.258 31.1635 180.857 30.9987 181.385 30.6692C181.916 30.3397 182.335 29.8644 182.64 29.2433C182.946 28.6191 183.097 27.8714 183.094 27Z" fill="#E6F7FF"/>
</svg>
