<svg width="50" height="50" viewBox="0 0 50 50" fill="none" xmlns="http://www.w3.org/2000/svg">
<path d="M7.87345e-06 25.4423C8.42257e-06 38.0048 25 25.4423 25 25.4423C25 25.4423 7.32433e-06 12.8798 7.87345e-06 25.4423Z" fill="#006598"/>
<path d="M50 25.4423C50 38.0048 25 25.4423 25 25.4423C25 25.4423 50 12.8798 50 25.4423Z" fill="#006598"/>
<path d="M12.5 47.0929C23.3795 53.3742 25 25.4423 25 25.4423C25 25.4423 1.62058 40.8117 12.5 47.0929Z" fill="#006598"/>
<path d="M37.5 3.79167C48.3795 10.0729 25 25.4423 25 25.4423C25 25.4423 26.6206 -2.48958 37.5 3.79167Z" fill="#006598"/>
<path d="M37.5 47.0929C26.6205 53.3742 25 25.4423 25 25.4423C25 25.4423 48.3794 40.8117 37.5 47.0929Z" fill="#006598"/>
<path d="M12.5 3.79167C1.62054 10.0729 25 25.4423 25 25.4423C25 25.4423 23.3794 -2.48958 12.5 3.79167Z" fill="#006598"/>
</svg>
