<svg width="50" height="50" viewBox="0 0 50 50" fill="none" xmlns="http://www.w3.org/2000/svg">
<path d="M26.4799 0.284638C25.3467 -0.0948795 24.6533 -0.0948795 23.5201 0.284638C20.7557 1.21048 20.8756 7.06956 21.7298 12.8503C19.567 7.42177 16.7297 2.2941 13.8741 2.88096C12.7035 3.12152 12.1038 3.46958 11.3142 4.36664C9.41527 6.52396 12.3473 11.4208 15.9186 15.9385C11.3931 12.3771 6.48978 9.45586 4.33663 11.3595C3.44132 12.1511 3.09457 12.7516 2.85658 13.9227C2.27995 16.7602 7.34028 19.5672 12.7323 21.7125C6.99004 20.8741 1.20417 20.7745 0.284639 23.5201C-0.0948795 24.6533 -0.0948795 25.3467 0.284638 26.4799C1.20417 29.2255 6.99004 29.1259 12.7322 28.2875C7.34027 30.4329 2.27993 33.2398 2.85656 36.0773C3.09455 37.2485 3.44129 37.8489 4.33661 38.6405C6.48974 40.5441 11.393 37.623 15.9184 34.0616C12.3472 38.5792 9.41521 43.4761 11.3141 45.6334C12.1037 46.5304 12.7034 46.8785 13.874 47.119C16.7297 47.7059 19.567 42.5781 21.7299 37.1494C20.8756 42.9303 20.7556 48.7895 23.5201 49.7154C24.6533 50.0949 25.3467 50.0949 26.4799 49.7154C29.2444 48.7895 29.1244 42.93 28.2701 37.1491C30.4329 42.5778 33.2703 47.7059 36.1261 47.119C37.2967 46.8785 37.8964 46.5304 38.686 45.6334C40.5849 43.4761 37.6529 38.5792 34.0816 34.0616C38.6071 37.623 43.5103 40.5441 45.6635 38.6405C46.5588 37.8489 46.9055 37.2485 47.1435 36.0773C47.7202 33.2398 42.6598 30.4329 37.2679 28.2875C43.0101 29.1259 48.7958 29.2255 49.7154 26.4799C50.0949 25.3467 50.0949 24.6533 49.7154 23.5201C48.7958 20.7745 43.01 20.8741 37.2679 21.7125C42.6598 19.5671 47.7201 16.7602 47.1435 13.9227C46.9055 12.7516 46.5588 12.1511 45.6635 11.3595C43.5103 9.45586 38.607 12.3771 34.0815 15.9385C37.6528 11.4208 40.5848 6.52396 38.6859 4.36664C37.8963 3.46958 37.2966 3.12152 36.126 2.88096C33.2703 2.29409 30.433 7.42198 28.2701 12.8506C29.1244 7.06977 29.2444 1.21049 26.4799 0.284638Z" fill="#006598"/>
</svg>
