<?xml version="1.0" encoding="UTF-8" standalone="no"?>
<!-- Created with Inkscape (http://www.inkscape.org/) -->

<svg
   width="113.75891mm"
   height="108.38157mm"
   viewBox="0 0 113.75891 108.38157"
   version="1.1"
   id="svg1"
   xmlns="http://www.w3.org/2000/svg"
   xmlns:svg="http://www.w3.org/2000/svg">
  <defs
     id="defs1" />
  <g
     id="layer1"
     transform="translate(-50.548225,-104.5074)">
    <path
       d="m 53.879898,159.11746 c -0.418532,0.0598 -0.82236,0.16176 -1.211483,0.30587 -0.389123,0.14411 -0.758147,0.38966 -1.107073,0.73666 -0.349907,0.33621 -0.620902,0.82288 -0.812986,1.46001 -0.193065,0.62634 -0.246446,1.41391 -0.160145,2.36272 0.06179,0.67926 0.213252,1.26883 0.454397,1.76871 0.240167,0.48909 0.547471,0.87968 0.921912,1.17175 0.363659,0.29305 0.768482,0.50083 1.214468,0.62334 0.445005,0.11171 0.899319,0.14649 1.36294,0.10432 0.474403,-0.0431 0.870879,-0.16617 1.189426,-0.3691 0.318548,-0.20291 0.568481,-0.44306 0.7498,-0.72046 0.181319,-0.2774 0.31412,-0.55039 0.398403,-0.81896 0.07252,-0.27837 0.129356,-0.54988 0.170511,-0.81453 l 0.333633,-2.42742 c 0.07251,-0.51754 0.154333,-0.93265 0.245474,-1.24533 0.07938,-0.32248 0.186205,-0.58223 0.32048,-0.77926 0.134275,-0.19702 0.300408,-0.34258 0.498399,-0.43669 0.19701,-0.10489 0.451852,-0.17155 0.764527,-0.19999 0.388149,-0.0353 0.726313,0.0372 1.014493,0.21755 0.276418,0.17054 0.498929,0.40577 0.667534,0.70569 0.167624,0.28915 0.294082,0.60378 0.379374,0.9439 0.08431,0.32933 0.141667,0.66112 0.172069,0.99536 0.03629,0.39893 0.02846,0.791 -0.02347,1.17621 -0.06369,0.37541 -0.183748,0.72877 -0.360163,1.06008 -0.187198,0.33229 -0.450362,0.60626 -0.789493,0.82191 -0.339131,0.21565 -0.756679,0.34604 -1.252646,0.39115 l 0.133865,1.47173 c 0.614568,-0.0559 1.151698,-0.18632 1.611391,-0.39117 0.448911,-0.20389 0.857137,-0.55629 1.224679,-1.05718 0.135255,-0.18624 0.254338,-0.37101 0.357247,-0.5543 0.101929,-0.19408 0.195035,-0.42541 0.279317,-0.69398 0.0833,-0.27935 0.139645,-0.61605 0.169032,-1.01008 0.04017,-0.39501 0.0372,-0.84589 -0.0089,-1.35264 -0.05001,-0.54988 -0.157858,-1.07819 -0.323534,-1.58493 -0.166655,-0.51753 -0.39947,-0.98555 -0.698444,-1.40407 -0.310736,-0.42832 -0.710173,-0.75617 -1.198312,-0.98355 -0.488139,-0.22738 -1.055665,-0.31165 -1.702578,-0.2528 -0.873333,0.0794 -1.536408,0.37891 -1.989225,0.89842 -0.463598,0.5205 -0.755658,1.1939 -0.87618,2.02019 l -0.458559,3.38457 c -0.05977,0.41854 -0.185709,0.767 -0.377808,1.04538 -0.203863,0.26857 -0.526824,0.42297 -0.968882,0.46318 -0.420493,0.0383 -0.773359,-0.0166 -1.058598,-0.16462 -0.285238,-0.14799 -0.510198,-0.35039 -0.67488,-0.60719 -0.175464,-0.25582 -0.30339,-0.52683 -0.383778,-0.81304 -0.08039,-0.28621 -0.134313,-0.58026 -0.161772,-0.88215 -0.03138,-0.34502 -0.01865,-0.68318 0.03818,-1.01448 0.04507,-0.34111 0.146997,-0.65477 0.30577,-0.94099 0.157794,-0.297 0.385183,-0.54597 0.682166,-0.74692 0.286202,-0.19997 0.64396,-0.33036 1.073274,-0.39115 z m 4.067209,-2.97129 c 0.558445,0.0713 1.111059,0.0599 1.657841,-0.034 0.546781,-0.0939 1.055513,-0.2746 1.526196,-0.54197 0.470683,-0.26737 0.861043,-0.6323 1.171082,-1.09479 0.311409,-0.47323 0.508223,-1.03202 0.590441,-1.67638 0.08222,-0.64436 0.03134,-1.2293 -0.152627,-1.75483 -0.1826,-0.53627 -0.468132,-0.9929 -0.856596,-1.36989 -0.388464,-0.37699 -0.835532,-0.67961 -1.341204,-0.90784 -0.505673,-0.22823 -1.037731,-0.37798 -1.596176,-0.44924 -0.558445,-0.0712 -1.111059,-0.0599 -1.657841,0.034 -0.557521,0.0926 -1.066253,0.27323 -1.526196,0.54196 -0.470683,0.26737 -0.861728,0.63767 -1.173137,1.1109 -0.310039,0.46249 -0.506168,1.01592 -0.588387,1.66028 -0.08222,0.64436 -0.03203,1.23467 0.150573,1.77094 0.18397,0.52553 0.470187,0.97679 0.858651,1.35378 0.388463,0.37699 0.835531,0.6796 1.341204,0.90784 0.505673,0.22823 1.037731,0.37798 1.596176,0.44923 z m 0.187048,-1.46592 c -0.32218,-0.0411 -0.661043,-0.12257 -1.016588,-0.24431 -0.355545,-0.12177 -0.688814,-0.2898 -0.999808,-0.50411 -0.309624,-0.22505 -0.551275,-0.51236 -0.724952,-0.86195 -0.173677,-0.34959 -0.229684,-0.76602 -0.16802,-1.24929 0.06167,-0.48327 0.220447,-0.87229 0.47634,-1.16706 0.255896,-0.29477 0.561951,-0.5122 0.918165,-0.65229 0.356215,-0.14009 0.721001,-0.21906 1.09436,-0.23691 0.374729,-0.0286 0.723184,-0.0223 1.045364,0.0188 0.32218,0.0411 0.661042,0.12257 1.016587,0.24431 0.356915,0.11103 0.690185,0.27907 0.999809,0.50412 0.309624,0.22505 0.551275,0.51236 0.724952,0.86195 0.173677,0.34959 0.229684,0.76601 0.16802,1.24928 -0.06167,0.48327 -0.220447,0.8723 -0.47634,1.16707 -0.255896,0.29477 -0.561951,0.5122 -0.918165,0.65229 -0.354844,0.12935 -0.719631,0.20831 -1.09436,0.2369 -0.374729,0.0286 -0.723184,0.0223 -1.045364,-0.0188 z m -5.301402,-11.84893 -0.37477,1.37906 11.251945,3.05779 0.374771,-1.37907 z m 4.392975,-3.23083 -0.482442,1.34519 7.994702,2.86724 0.482442,-1.34519 z m -1.452193,-0.52082 -1.528623,-0.54823 -0.482442,1.34519 1.528623,0.54823 z m 8.195408,-7.16415 c -0.36178,-0.14858 -0.736108,-0.24885 -1.122985,-0.30082 -0.386876,-0.052 -0.769599,-0.0289 -1.14817,0.0694 -0.383279,0.0836 -0.74324,0.26433 -1.079881,0.54207 -0.331711,0.2681 -0.618361,0.6383 -0.85995,1.11059 -0.310614,0.60723 -0.478226,1.19641 -0.502835,1.76753 -0.01968,0.56148 0.08437,1.09504 0.312138,1.60069 0.232701,0.49601 0.567497,0.94696 1.004386,1.35285 0.427251,0.40096 0.939672,0.75428 1.537264,1.05997 1.118075,0.57192 2.184228,0.73422 3.198459,0.48691 1.014231,-0.24731 1.787587,-0.89145 2.320068,-1.93242 0.271171,-0.53012 0.416151,-1.02751 0.434942,-1.49216 0.01408,-0.47922 -0.06183,-0.91327 -0.227724,-1.30214 -0.165898,-0.38888 -0.383121,-0.72497 -0.651668,-1.00826 -0.263617,-0.29293 -0.554239,-0.54496 -0.871868,-0.75608 l -0.628624,1.22892 c 0.514442,0.39692 0.846883,0.84059 0.997324,1.331 0.140801,0.48548 0.0978,0.94991 -0.128994,1.39329 -0.212007,0.41446 -0.471428,0.71954 -0.778265,0.91524 -0.311545,0.18113 -0.64652,0.27732 -1.004925,0.28855 -0.363113,-0.003 -0.723317,-0.0599 -1.080611,-0.1697 -0.366933,-0.11473 -0.733532,-0.26578 -1.099798,-0.45313 -0.356628,-0.18242 -0.686361,-0.39365 -0.989198,-0.63368 -0.297907,-0.24967 -0.539893,-0.52546 -0.725957,-0.82737 -0.186064,-0.30191 -0.291999,-0.62971 -0.317804,-0.98341 -0.02581,-0.35369 0.05743,-0.71849 0.24972,-1.0944 0.266241,-0.52048 0.615541,-0.85863 1.047902,-1.01445 0.432361,-0.15581 0.928504,-0.13915 1.488431,0.05 z m -0.263809,-4.57982 -0.808452,1.17842 7.003603,4.80478 0.808452,-1.17843 z m -1.272165,-0.87276 -1.339121,-0.9187 -0.808452,1.17843 1.339121,0.91869 z m 5.89955,-3.10558 -0.914103,-0.75485 -0.868599,1.05185 -1.828206,-1.50971 -0.90996,1.10193 1.828206,1.50971 -0.734172,0.88906 0.914104,0.75485 0.734172,-0.88906 4.320077,3.56746 c 0.442443,0.36536 0.868161,0.55544 1.277154,0.57025 0.400645,0.008 0.807776,-0.23855 1.221395,-0.73945 0.03447,-0.0417 0.111562,-0.1606 0.231285,-0.35659 0.174872,-0.26277 0.296049,-0.44352 0.363531,-0.54224 l -0.864016,-0.71349 -0.320554,0.38818 c -0.15166,0.18365 -0.311857,0.31814 -0.480591,0.40345 -0.16184,0.077 -0.355458,0.0224 -0.580853,-0.16375 l -4.257468,-3.51575 z m 9.044841,-2.28585 c 0.221899,0.29548 0.311753,0.69508 0.269562,1.19881 -0.02996,0.27439 -0.109409,0.54231 -0.238347,0.80375 -0.120883,0.25421 -0.302107,0.48987 -0.543672,0.70698 -0.603913,0.54277 -1.2221,0.77813 -1.854561,0.70607 -0.631645,-0.0873 -1.247801,-0.46518 -1.848468,-1.13351 l 4.613896,-4.14677 c -1.034883,-1.15146 -2.074908,-1.84705 -3.120075,-2.08677 -1.045167,-0.23972 -2.014646,0.0421 -2.908437,0.84537 -0.507287,0.45593 -0.874577,0.94615 -1.101868,1.47068 -0.219239,0.51728 -0.312955,1.05276 -0.281146,1.60643 0.03986,0.54643 0.191178,1.0873 0.453954,1.62262 0.255539,0.52727 0.607653,1.04052 1.056344,1.53976 0.839486,0.93405 1.777021,1.46702 2.812605,1.5989 1.035584,0.13188 1.988194,-0.19298 2.857829,-0.97457 0.450921,-0.40527 0.76098,-0.75672 0.930176,-1.05435 0.177248,-0.30487 0.308629,-0.61218 0.394142,-0.92193 0.07664,-0.28723 0.111042,-0.57289 0.10319,-0.85696 -0.007,-0.29936 -0.04546,-0.58506 -0.11529,-0.85711 -0.09949,-0.43461 -0.238469,-0.77551 -0.416947,-1.02268 z m -4.975365,1.43662 c -0.217109,-0.24156 -0.382693,-0.51487 -0.496754,-0.81994 -0.121297,-0.31312 -0.181031,-0.63062 -0.1792,-0.95251 0.0018,-0.32189 0.068,-0.62884 0.198594,-0.92087 0.123328,-0.30007 0.301749,-0.55505 0.535262,-0.76492 0.314035,-0.28224 0.626797,-0.46872 0.938286,-0.55944 0.312304,-0.10601 0.61248,-0.12834 0.900528,-0.067 0.288863,0.0461 0.56682,0.15288 0.833872,0.32045 0.267867,0.15228 0.529263,0.35404 0.784186,0.60529 z m 19.395962,-6.78612 -3.581676,-7.70117 -1.295798,0.60266 1.972319,4.24079 c 0.141532,0.30431 0.241515,0.62198 0.299948,0.95301 0.06825,0.32646 0.07829,0.65611 0.03011,0.98896 -0.03836,0.32828 -0.15845,0.63487 -0.360269,0.91977 -0.206383,0.27509 -0.505908,0.50394 -0.898574,0.68656 -0.461383,0.21459 -0.886234,0.25099 -1.274553,0.10921 -0.38832,-0.14178 -0.721729,-0.51208 -1.000228,-1.1109 l -2.37637,-5.10956 -1.295798,0.60265 2.574972,5.53659 c 0.20545,0.44175 0.454849,0.78545 0.748196,1.0311 0.288782,0.23583 0.599254,0.38994 0.931415,0.46231 0.332162,0.0724 0.658847,0.0817 0.980054,0.0278 0.331024,-0.0584 0.648694,-0.15838 0.95301,-0.29995 0.598816,-0.2785 1.034519,-0.61248 1.30711,-1.00193 0.268025,-0.39927 0.434806,-0.90071 0.500342,-1.50431 l 0.04315,0.0157 0.520473,1.1191 z m 1.993799,-0.938 1.403859,-0.26733 -0.865764,-4.54659 c -0.101259,-0.53177 -0.117189,-0.99161 -0.04779,-1.37954 0.07801,-0.40059 0.209451,-0.72318 0.394314,-0.96778 0.193473,-0.25726 0.404414,-0.45172 0.632825,-0.58338 0.239045,-0.13369 0.470239,-0.22179 0.69358,-0.26432 0.467953,-0.0891 0.83233,0.001 1.093131,0.27125 0.258776,0.25931 0.428668,0.60168 0.509675,1.02709 l 1.099673,5.77496 1.403851,-0.26732 -0.969041,-5.08899 c -0.111385,-0.58494 -0.02349,-1.13619 0.26369,-1.65376 0.285153,-0.5282 0.709561,-0.84597 1.273231,-0.9533 0.56368,-0.10733 0.9949,-0.0131 1.29368,0.28266 0.29676,0.28514 0.50386,0.73613 0.62132,1.35298 l 1.02677,5.3921 1.40386,-0.26732 -1.09967,-5.77497 c -0.10531,-0.55304 -0.27849,-0.99947 -0.51954,-1.3393 -0.24104,-0.33983 -0.51906,-0.58446 -0.83406,-0.73388 -0.30638,-0.16207 -0.61024,-0.25299 -0.91157,-0.27276 -0.30335,-0.0304 -0.58797,-0.0203 -0.85386,0.0303 -0.58493,0.11139 -1.032635,0.30685 -1.343096,0.58638 -0.299826,0.27751 -0.616878,0.69607 -0.951157,1.25566 l -0.003,-0.016 c -0.11546,-0.14333 -0.23953,-0.27399 -0.372211,-0.392 -0.122045,-0.12003 -0.281313,-0.23298 -0.477805,-0.33884 -0.185857,-0.10788 -0.41451,-0.18006 -0.685959,-0.21653 -0.273473,-0.0471 -0.585693,-0.0373 -0.936658,0.0296 -0.350965,0.0668 -0.659898,0.18077 -0.926799,0.3418 -0.258291,0.14837 -0.474295,0.31624 -0.648014,0.50361 -0.175743,0.17674 -0.31325,0.35171 -0.412521,0.52491 -0.08864,0.17117 -0.176259,0.34765 -0.26287,0.52946 l -0.03191,0.006 -0.224795,-1.18052 -1.324094,0.25213 z m 18.093114,-6.12786 c -0.0885,0.55597 -0.0943,1.10866 -0.0174,1.65809 0.0769,0.54943 0.24174,1.06352 0.49439,1.54227 0.25265,0.47875 0.6053,0.88024 1.05795,1.20447 0.46335,0.32593 1.01577,0.53998 1.65727,0.64213 0.6415,0.10216 1.22774,0.0695 1.75872,-0.0981 0.54167,-0.16588 1.00693,-0.43711 1.39579,-0.8137 0.38885,-0.37659 0.70518,-0.81406 0.94899,-1.31241 0.24381,-0.49835 0.40998,-1.02551 0.49851,-1.58148 0.0885,-0.55597 0.0943,-1.10867 0.0174,-1.6581 -0.0752,-0.56013 -0.24003,-1.07422 -0.49438,-1.54227 -0.25265,-0.47875 -0.61064,-0.88109 -1.07399,-1.20702 -0.45265,-0.32423 -0.99973,-0.53742 -1.64123,-0.63958 -0.64151,-0.10216 -1.23309,-0.0703 -1.77476,0.0956 -0.53098,0.16759 -0.9909,0.43967 -1.37975,0.81626 -0.38886,0.37659 -0.70519,0.81406 -0.94899,1.31241 -0.24381,0.49835 -0.40998,1.02551 -0.49852,1.58148 z m 1.45942,0.23241 c 0.0511,-0.32075 0.14297,-0.65693 0.27571,-1.00853 0.13273,-0.35159 0.31102,-0.67949 0.53487,-0.98369 0.23455,-0.3025 0.52922,-0.53513 0.88402,-0.69788 0.3548,-0.16275 0.77276,-0.20582 1.25389,-0.1292 0.48113,0.0766 0.86504,0.24739 1.15174,0.5123 0.28669,0.26491 0.49453,0.57756 0.62351,0.93795 0.12897,0.36039 0.19659,0.72745 0.20285,1.10118 0.0169,0.37543 -1.3e-4,0.72353 -0.0512,1.04428 -0.0511,0.32075 -0.14297,0.65692 -0.27572,1.00852 -0.12204,0.3533 -0.30033,0.6812 -0.53487,0.9837 -0.23454,0.30249 -0.52921,0.53512 -0.88401,0.69787 -0.35481,0.16275 -0.77277,0.20582 -1.2539,0.1292 -0.48112,-0.0766 -0.86503,-0.24738 -1.15173,-0.51229 -0.2867,-0.26491 -0.49454,-0.57756 -0.62351,-0.93795 -0.11829,-0.35869 -0.18591,-0.72575 -0.20286,-1.10118 -0.0169,-0.37544 1.3e-4,-0.72353 0.0512,-1.04428 z m 10.29001,1.58353 c 0.19857,-0.60711 0.55554,-1.0542 1.07089,-1.34127 0.51872,-0.29736 1.08678,-0.34507 1.70418,-0.14313 l 0.50935,0.1666 0.45941,-1.40459 c -0.0928,-0.0645 -0.20609,-0.11867 -0.33986,-0.16241 -0.48363,-0.15819 -0.9561,-0.15885 -1.41741,-0.002 -0.45794,0.14637 -0.91343,0.42455 -1.36647,0.83452 l -0.0309,-0.0101 0.43922,-1.34284 -1.2811,-0.41902 -2.64035,8.07248 1.35828,0.44426 z m 1.88272,9.52723 c 0.17415,0.20831 0.36285,0.39969 0.56608,0.57413 0.20323,0.17444 0.42585,0.32227 0.66785,0.44348 0.52273,0.26181 1.002,0.34445 1.43782,0.24791 0.43582,-0.0965 0.7507,-0.3384 0.94463,-0.7256 0.14061,-0.28073 0.16987,-0.58089 0.0878,-0.9005 -0.0821,-0.31961 -0.33609,-0.58608 -0.76202,-0.79941 -0.0968,-0.0485 -0.22507,-0.0945 -0.38482,-0.13825 -0.0339,-0.005 -0.0653,-0.0144 -0.0944,-0.0291 l 0.90087,-0.45692 c 0.47436,0.18915 0.92216,0.27419 1.3434,0.25511 0.43577,-0.0239 0.82802,-0.11808 1.17673,-0.28243 0.35357,-0.17406 0.66116,-0.3893 0.92279,-0.64573 0.27616,-0.26127 0.50633,-0.53951 0.69052,-0.83472 l -1.23421,-0.61817 c -0.39253,0.51779 -0.83336,0.85399 -1.32248,1.00859 -0.48427,0.14491 -0.94905,0.10586 -1.39433,-0.11716 -0.41625,-0.20848 -0.72352,-0.4653 -0.92182,-0.77047 -0.18377,-0.30999 -0.2828,-0.64414 -0.29708,-1.00244 2.5e-4,-0.36313 0.0538,-0.7238 0.16052,-1.08201 0.11161,-0.36789 0.25954,-0.73576 0.44378,-1.10361 0.17939,-0.35816 0.38781,-0.68967 0.62526,-0.99454 0.24713,-0.30001 0.52086,-0.54433 0.82118,-0.73295 0.30031,-0.18862 0.6272,-0.29734 0.98067,-0.32615 0.35347,-0.0288 0.71896,0.0513 1.09648,0.24042 0.52273,0.26181 0.86383,0.60823 1.02331,1.03925 0.15948,0.43103 0.14705,0.9273 -0.0373,1.48881 l 1.23422,0.61816 c 0.1455,-0.36303 0.24259,-0.73819 0.29127,-1.1255 0.0487,-0.3873 0.0223,-0.76981 -0.0791,-1.14754 -0.0869,-0.38255 -0.27062,-0.74097 -0.55121,-1.07524 -0.27091,-0.32942 -0.64353,-0.61292 -1.11785,-0.85049 -0.60985,-0.30545 -1.20043,-0.46805 -1.77174,-0.48781 -0.56163,-0.0149 -1.09429,0.0936 -1.59799,0.32572 -0.49401,0.23691 -0.9421,0.57552 -1.34427,1.01584 -0.39732,0.43064 -0.74628,0.94604 -1.04687,1.54621 -0.52847,1.05513 -0.69137,2.06935 -0.48869,3.04268 0.20269,0.97332 0.76622,1.73386 1.69061,2.28161 l -1.31498,0.66725 0.10866,0.39952 c 0.17913,0.0292 0.31226,0.0535 0.39939,0.0729 0.092,0.0339 0.167,0.0655 0.22508,0.0946 0.15488,0.0776 0.28794,0.19871 0.39919,0.36341 0.1064,0.17437 0.11113,0.35836 0.0142,0.55196 -0.11637,0.23233 -0.28349,0.34841 -0.50136,0.34826 -0.2082,0.005 -0.41394,-0.0439 -0.61722,-0.14568 -0.16456,-0.0824 -0.3049,-0.17693 -0.42103,-0.28352 -0.1113,-0.0921 -0.2492,-0.22774 -0.41369,-0.40699 z M 137.48076,116.25 c 0.15724,-0.15237 0.30994,-0.28095 0.4581,-0.38576 0.15677,-0.0982 0.33606,-0.17246 0.53787,-0.22267 0.21043,-0.0436 0.44416,-0.0286 0.70119,0.0451 0.26361,0.0651 0.54598,0.21261 0.84712,0.44264 1.05829,0.80827 1.30816,1.57807 0.7496,2.30941 -0.22999,0.30114 -0.44363,0.46492 -0.64091,0.49135 -0.1821,0.0244 -0.37006,-0.0238 -0.56389,-0.14459 l -2.0488,-1.19695 c -0.47823,-0.28351 -0.92503,-0.44765 -1.34039,-0.49242 -0.40018,-0.0468 -0.75555,-0.0185 -1.0661,0.0849 -0.30195,0.10996 -0.55329,0.25176 -0.75402,0.4254 -0.19415,0.16503 -0.36352,0.3422 -0.50809,0.53149 -0.44027,0.57647 -0.60051,1.19652 -0.48072,1.86017 0.11979,0.66365 0.48943,1.23204 1.10892,1.70517 0.58507,0.44685 1.14145,0.7083 1.66914,0.78437 0.53629,0.0826 1.07227,0.0765 1.60794,-0.0184 -0.21733,0.33807 -0.32084,0.66089 -0.31053,0.96846 0.0255,0.30553 0.26621,0.63244 0.72224,0.98072 0.12906,0.0986 0.31123,0.19002 0.54652,0.27436 0.0734,0.0288 0.13055,0.052 0.17154,0.0697 l 0.63084,-0.82599 c -0.19837,-0.097 -0.33627,-0.17508 -0.4137,-0.23422 -0.24952,-0.19057 -0.27242,-0.41921 -0.0687,-0.68594 l 2.96693,-3.88472 c 0.30885,-0.40439 0.46289,-0.81121 0.46214,-1.22047 0.008,-0.40269 -0.0842,-0.77269 -0.27613,-1.11 -0.17676,-0.33934 -0.38207,-0.63238 -0.61594,-0.87911 -0.22527,-0.24015 -0.43685,-0.4358 -0.63474,-0.58694 -0.86901,-0.6637 -1.68242,-0.99886 -2.44024,-1.00548 -0.75125,-0.0152 -1.43877,0.35881 -2.06256,1.12204 z m 1.30655,4.73732 c -0.17085,0.22371 -0.39208,0.38851 -0.66367,0.4944 -0.25643,0.10386 -0.53944,0.15336 -0.84904,0.14849 -0.30303,-0.0135 -0.61647,-0.0757 -0.9403,-0.18686 -0.30866,-0.11313 -0.59205,-0.26827 -0.85017,-0.46541 -0.41299,-0.31542 -0.64717,-0.65093 -0.70253,-1.00653 -0.0402,-0.35764 0.0843,-0.72575 0.37343,-1.10432 0.15114,-0.19789 0.3223,-0.33282 0.51348,-0.40477 0.19979,-0.0654 0.40239,-0.081 0.6078,-0.0467 0.20541,0.0343 0.39869,0.0933 0.57985,0.17722 0.19633,0.0818 0.3904,0.17556 0.58219,0.28117 0.71962,0.41337 1.22288,0.68194 1.50979,0.80571 0.29552,0.13034 0.52447,0.19622 0.68686,0.19764 z m 1.32804,4.70063 0.88901,1.11891 3.62372,-2.87918 c 0.42383,-0.33675 0.82362,-0.56452 1.19938,-0.68331 0.39097,-0.11705 0.73769,-0.15055 1.04018,-0.10051 0.3177,0.0518 0.58791,0.14823 0.81062,0.2893 0.22945,0.14956 0.4149,0.31334 0.55633,0.49135 0.29633,0.37297 0.38557,0.73763 0.26772,1.094 -0.10938,0.34963 -0.3336,0.65915 -0.67267,0.92855 l -4.60276,3.65706 0.88901,1.1189 4.05603,-3.22266 c 0.46621,-0.37042 0.99518,-0.54872 1.58692,-0.53491 0.60021,0.007 1.07879,0.23523 1.43574,0.6845 0.35695,0.44926 0.47389,0.87489 0.35081,1.27689 -0.11461,0.39527 -0.41773,0.78821 -0.90937,1.17884 l -4.29761,3.4146 0.88901,1.11891 4.60276,-3.65706 c 0.44078,-0.35022 0.75563,-0.711 0.94456,-1.08235 0.18892,-0.37135 0.27635,-0.7312 0.2623,-1.07955 0.001,-0.34661 -0.0593,-0.65792 -0.18203,-0.93393 -0.11403,-0.28275 -0.25523,-0.53008 -0.4236,-0.74199 -0.37042,-0.46621 -0.75152,-0.77183 -1.14331,-0.91686 -0.38505,-0.13655 -0.90299,-0.22282 -1.55383,-0.25881 l 0.0127,-0.0101 c 0.0733,-0.16884 0.13133,-0.33942 0.17418,-0.51174 0.0496,-0.16384 0.0756,-0.35735 0.078,-0.58053 0.009,-0.2147 -0.0331,-0.45071 -0.12698,-0.70803 -0.0854,-0.26405 -0.23915,-0.53593 -0.4614,-0.81566 -0.22225,-0.27973 -0.46668,-0.50035 -0.73329,-0.66187 -0.2514,-0.15977 -0.50042,-0.27304 -0.74705,-0.33981 -0.23816,-0.0735 -0.45698,-0.11397 -0.65647,-0.1214 -0.19276,0.001 -0.38976,0.006 -0.59099,0.0132 l -0.0202,-0.0254 0.9409,-0.74758 -0.8385,-1.05533 z m 12.79368,15.0935 c -0.34883,0.12192 -0.75688,0.0864 -1.22413,-0.1064 -0.25241,-0.11171 -0.48365,-0.26861 -0.69373,-0.47072 -0.20562,-0.19223 -0.37528,-0.43635 -0.50897,-0.73235 -0.33424,-0.74 -0.37119,-1.40044 -0.11086,-1.98132 0.27465,-0.57547 0.82145,-1.04815 1.64038,-1.41804 l 2.55356,5.65359 c 1.41093,-0.63728 2.38898,-1.41761 2.93416,-2.34098 0.54518,-0.92337 0.57045,-1.93266 0.0758,-3.02786 -0.28076,-0.62159 -0.63663,-1.12017 -1.0676,-1.49573 -0.42652,-0.36569 -0.90842,-0.61727 -1.44569,-0.75474 -0.53282,-0.12761 -1.09412,-0.14731 -1.6839,-0.0591 -0.57991,0.0837 -1.17574,0.26376 -1.78747,0.54006 -1.14453,0.51695 -1.93654,1.24889 -2.37605,2.19581 -0.43951,0.94692 -0.41861,1.95318 0.0627,3.01878 0.24957,0.55253 0.49053,0.95452 0.72289,1.20595 0.23681,0.2613 0.48986,0.47963 0.75914,0.655 0.2505,0.16009 0.5123,0.27943 0.78539,0.35803 0.28741,0.084 0.57133,0.13397 0.85174,0.14987 0.44433,0.0369 0.81131,0.008 1.10095,-0.0874 z m 0.13869,-5.17676 c 0.29599,-0.1337 0.60664,-0.20867 0.93193,-0.22492 0.33515,-0.0207 0.65583,0.0186 0.96202,0.11788 0.30619,0.0993 0.57865,0.2554 0.81738,0.46832 0.24859,0.20847 0.43751,0.45577 0.56674,0.7419 0.17381,0.3848 0.25674,0.73937 0.2488,1.0637 0.007,0.32974 -0.063,0.62257 -0.20908,0.87848 -0.13144,0.26131 -0.31747,0.49383 -0.55808,0.69755 -0.22629,0.20912 -0.49777,0.39708 -0.81446,0.56388 z m 5.76962,14.77215 c 0.55916,-0.12879 1.0092,-0.32132 1.35013,-0.5776 0.34093,-0.25628 0.58409,-0.55115 0.72948,-0.8846 0.15595,-0.33589 0.23724,-0.68235 0.24389,-1.03939 0.009,-0.3465 -0.0277,-0.6991 -0.11032,-1.05781 -0.0778,-0.33761 -0.20098,-0.63141 -0.36966,-0.88141 -0.15813,-0.25244 -0.33534,-0.46715 -0.53165,-0.64413 -0.19387,-0.16643 -0.38045,-0.30122 -0.55974,-0.40435 -0.17686,-0.0926 -0.35129,-0.17462 -0.5233,-0.2461 l -0.007,-0.0316 1.17107,-0.26973 -0.30252,-1.31349 -8.27662,1.90628 0.32075,1.39263 4.5102,-1.0388 c 0.52751,-0.1215 0.98642,-0.15498 1.37671,-0.10045 0.40327,0.0627 0.73065,0.18169 0.98214,0.35706 0.26446,0.18351 0.46684,0.38687 0.60713,0.61008 0.14272,0.23377 0.23959,0.46143 0.29062,0.68298 0.15065,0.65411 0.0823,1.15314 -0.20513,1.49708 -0.28741,0.34395 -0.80564,0.60218 -1.5547,0.7747 l -5.09574,1.17367 0.32075,1.39262 z m 2.05038,5.95602 1.18188,-0.0923 -0.10625,-1.35999 2.36377,-0.18468 -0.11131,-1.42474 -2.36378,0.18468 -0.0898,-1.14951 -1.18189,0.0924 0.0898,1.1495 -5.58564,0.43642 c -0.57205,0.0447 -1.01028,0.20379 -1.31469,0.47736 -0.29362,0.27271 -0.41513,0.73287 -0.36453,1.38048 0.004,0.054 0.0312,0.19305 0.0815,0.41715 0.0569,0.31048 0.0953,0.52466 0.11536,0.64255 l 1.11713,-0.0873 -0.0392,-0.5019 c -0.0185,-0.23745 0.003,-0.44548 0.0653,-0.62408 0.0629,-0.16781 0.24003,-0.2631 0.53149,-0.28587 l 5.50469,-0.43008 z m -2.88744,1.78788 c -0.56158,-0.0396 -1.11267,0.003 -1.65328,0.12756 -0.54061,0.12467 -1.03833,0.33376 -1.49317,0.62727 -0.45483,0.29351 -0.82397,0.6799 -1.10741,1.15915 -0.28419,0.49006 -0.44915,1.05908 -0.49486,1.70705 -0.0457,0.64797 0.0381,1.22911 0.25145,1.74341 0.21259,0.5251 0.52344,0.96488 0.93257,1.31935 0.40913,0.35446 0.87256,0.63135 1.39031,0.83067 0.51775,0.19933 1.05742,0.3188 1.61899,0.35841 0.56158,0.0396 1.11267,-0.003 1.65328,-0.12756 0.55141,-0.12391 1.04913,-0.333 1.49317,-0.62727 0.45483,-0.29351 0.82435,-0.6853 1.10855,-1.17535 0.28343,-0.47926 0.44801,-1.04288 0.49372,-1.69085 0.0457,-0.64797 -0.0377,-1.23451 -0.25031,-1.75961 -0.21335,-0.5143 -0.52458,-0.94868 -0.93371,-1.30315 -0.40913,-0.35446 -0.87256,-0.63135 -1.39031,-0.83067 -0.51775,-0.19933 -1.05742,-0.3188 -1.61899,-0.35841 z m -0.104,1.47414 c 0.32399,0.0229 0.66691,0.085 1.02876,0.18653 0.36185,0.1015 0.70408,0.25045 1.02667,0.44686 0.32184,0.20721 0.57933,0.48043 0.77246,0.81966 0.19313,0.33922 0.27256,0.75182 0.23828,1.2378 -0.0343,0.48598 -0.17083,0.88335 -0.4097,1.1921 -0.23885,0.30875 -0.53214,0.54311 -0.87987,0.70308 -0.34774,0.15998 -0.70749,0.25942 -1.07925,0.29831 -0.37251,0.0497 -0.72076,0.0631 -1.04475,0.0403 -0.32399,-0.0229 -0.66691,-0.085 -1.02876,-0.18653 -0.36261,-0.0907 -0.70484,-0.23965 -1.02667,-0.44686 -0.32184,-0.20721 -0.57933,-0.48043 -0.77246,-0.81966 -0.19313,-0.33922 -0.27256,-0.75182 -0.23828,-1.2378 0.0343,-0.48598 0.17083,-0.88335 0.4097,-1.1921 0.23885,-0.30875 0.53214,-0.54311 0.87987,-0.70308 0.34698,-0.14918 0.70673,-0.24862 1.07925,-0.29831 0.37251,-0.0497 0.72076,-0.0631 1.04475,-0.0403 z m -2.41999,17.19957 1.28005,-3.76717 -1.38386,-0.47022 -1.28005,3.76717 z m -4.20727,8.6034 -3.1804,4.7499 1.16048,0.77703 3.1804,-4.7499 2.96869,1.98775 -3.61409,5.39762 1.16049,0.77703 4.49051,-6.70654 -9.68873,-6.4873 -0.87641,1.30893 z m -5.28767,8.03232 c 0.12955,0.17651 0.23616,0.34529 0.31983,0.50634 0.076,0.16867 0.12511,0.3564 0.14738,0.56317 0.0146,0.21441 -0.0321,0.44391 -0.14012,0.68852 -0.10037,0.25229 -0.28498,0.51196 -0.55382,0.77899 -0.94479,0.93844 -1.74144,1.08121 -2.38995,0.42831 -0.26703,-0.26885 -0.40021,-0.50279 -0.39954,-0.70182 6.2e-4,-0.18373 0.0739,-0.36339 0.21999,-0.53897 l 1.46466,-1.86683 c 0.34597,-0.43519 0.56939,-0.85549 0.67028,-1.26089 0.10083,-0.39009 0.12117,-0.746 0.061,-1.06773 -0.0678,-0.3141 -0.17411,-0.5824 -0.31881,-0.8049 -0.13707,-0.21481 -0.28954,-0.40671 -0.45739,-0.5757 -0.51118,-0.51464 -1.10366,-0.75778 -1.77744,-0.72943 -0.67377,0.0283 -1.28718,0.31717 -1.84023,0.86652 -0.52232,0.51881 -0.85707,1.03442 -1.00425,1.54684 -0.15486,0.52005 -0.22172,1.05188 -0.20059,1.59549 -0.30534,-0.26131 -0.61107,-0.4078 -0.91718,-0.43945 -0.30616,-0.0163 -0.66279,0.17768 -1.0699,0.58203 -0.11521,0.11445 -0.23061,0.28248 -0.34619,0.5041 -0.0385,0.0688 -0.0693,0.12225 -0.0924,0.16045 l 0.73244,0.73739 c 0.12311,-0.18331 0.21922,-0.3093 0.28835,-0.37797 0.22276,-0.22126 0.4524,-0.21283 0.68891,0.0253 l 3.44475,3.46805 c 0.35859,0.36102 0.74067,0.56901 1.14622,0.62396 0.39787,0.0626 0.77696,0.0218 1.13725,-0.12248 0.36024,-0.12893 0.67849,-0.29245 0.95476,-0.49056 0.26858,-0.19048 0.4912,-0.37346 0.66787,-0.54894 0.7758,-0.77059 1.21855,-1.53081 1.32826,-2.28068 0.11733,-0.74219 -0.15962,-1.47422 -0.83087,-2.19609 z m -4.87106,0.6496 c -0.19837,-0.19971 -0.33152,-0.4413 -0.39947,-0.72478 -0.068,-0.26817 -0.0785,-0.55529 -0.0316,-0.86135 0.0546,-0.29838 0.15897,-0.60042 0.31311,-0.90612 0.15409,-0.29039 0.34635,-0.55002 0.57678,-0.77891 0.3687,-0.36622 0.73296,-0.55255 1.09279,-0.55899 0.35977,0.009 0.70751,0.18229 1.04322,0.52026 0.17548,0.17667 0.28585,0.3646 0.33111,0.56379 0.0376,0.20683 0.0254,0.40966 -0.0365,0.60849 -0.0619,0.19883 -0.14676,0.38228 -0.25449,0.55033 -0.10779,0.18337 -0.22706,0.36287 -0.35779,0.53851 -0.50747,0.65666 -0.84204,1.11869 -1.00371,1.38608 -0.16935,0.27503 -0.26578,0.49288 -0.28929,0.65357 z m 0.8609,10.57803 1.13937,-0.86263 -7.03828,-9.29619 -1.13936,0.86263 z m -12.48089,-2.81651 c -0.15121,-0.33717 -0.15055,-0.74676 0.002,-1.22875 0.0898,-0.26101 0.2264,-0.50478 0.40985,-0.73133 0.17401,-0.22126 0.40277,-0.41111 0.68629,-0.56956 0.70881,-0.39611 1.3637,-0.48923 1.96466,-0.27937 0.59679,0.22459 1.11437,0.72909 1.55273,1.51351 l -5.41529,3.02626 c 0.75524,1.35147 1.61611,2.25943 2.5826,2.7239 0.96649,0.46447 1.97426,0.40359 3.02329,-0.18265 0.5954,-0.33273 1.06182,-0.72981 1.39927,-1.19124 0.32799,-0.45614 0.53758,-0.95773 0.62875,-1.50477 0.0817,-0.54176 0.0535,-1.10269 -0.0847,-1.6828 -0.13287,-0.57067 -0.36304,-1.14897 -0.69049,-1.73492 -0.61265,-1.09629 -1.40944,-1.82303 -2.39038,-2.1802 -0.98095,-0.35718 -1.98176,-0.25057 -3.00245,0.31983 -0.52924,0.29576 -0.90922,0.57012 -1.13993,0.82307 -0.24016,0.25823 -0.43612,0.52897 -0.58789,0.81222 -0.13815,0.26323 -0.23474,0.53425 -0.28977,0.81305 -0.0592,0.29353 -0.0848,0.58067 -0.0767,0.86142 0.001,0.44585 0.0617,0.80901 0.18097,1.08948 z m 5.16975,-0.30317 c 0.15844,0.28352 0.25962,0.58664 0.30354,0.90936 0.0492,0.33217 0.0374,0.65502 -0.0354,0.96857 -0.0728,0.31355 -0.20513,0.59832 -0.39692,0.85433 -0.18651,0.26546 -0.41681,0.47477 -0.69088,0.62794 -0.36858,0.20597 -0.71479,0.31883 -1.03862,0.33857 -0.328,0.0345 -0.6257,-0.01 -0.8931,-0.13342 -0.27157,-0.10868 -0.5191,-0.27421 -0.74259,-0.49658 -0.22766,-0.20763 -0.43808,-0.46211 -0.63127,-0.76342 z m -18.97246,7.82663 c 0.11779,0.37294 0.28069,0.72456 0.48872,1.05486 0.20803,0.3303 0.47105,0.60929 0.78904,0.83698 0.30982,0.24064 0.67921,0.40118 1.10816,0.48162 0.41839,0.0828 0.88627,0.0657 1.40366,-0.0515 0.66521,-0.15069 1.22491,-0.39958 1.67912,-0.74669 0.44365,-0.34471 0.78658,-0.76652 1.02879,-1.26541 0.23165,-0.4965 0.36329,-1.0425 0.3949,-1.638 0.034,-0.58494 -0.0231,-1.20473 -0.17143,-1.85938 -0.27745,-1.22483 -0.83609,-2.14731 -1.6759,-2.76742 -0.83981,-0.62011 -1.8299,-0.80101 -2.97026,-0.54269 -0.58074,0.13155 -1.05548,0.339 -1.42422,0.62234 -0.37691,0.29629 -0.66148,0.63272 -0.85369,1.00928 -0.19222,0.37656 -0.31102,0.75869 -0.35641,1.1464 -0.0559,0.39009 -0.0632,0.77471 -0.0217,1.15384 l 1.34626,-0.30496 c -0.025,-0.64929 0.10255,-1.18881 0.38265,-1.61858 0.28246,-0.41921 0.66654,-0.68382 1.15225,-0.79384 0.45403,-0.10285 0.85449,-0.0992 1.20136,0.0109 0.3387,0.12309 0.6272,0.3186 0.86551,0.58654 0.23013,0.28089 0.41754,0.59366 0.56222,0.93831 0.14707,0.35521 0.26604,0.73343 0.35693,1.13467 0.0885,0.39068 0.13765,0.77917 0.14745,1.16547 -6.7e-4,0.3887 -0.0573,0.7512 -0.16992,1.08751 -0.11253,0.33631 -0.29629,0.62771 -0.55128,0.87418 -0.25499,0.24647 -0.58838,0.41634 -1.00018,0.50963 -0.57018,0.12916 -1.05361,0.0777 -1.4503,-0.15436 -0.39669,-0.23206 -0.70185,-0.62361 -0.91548,-1.17465 z m -2.04911,-1.09576 c -0.0196,-0.56263 -0.11981,-1.1062 -0.30062,-1.63071 -0.18079,-0.52451 -0.44102,-0.9975 -0.78071,-1.41897 -0.33969,-0.42147 -0.76273,-0.74796 -1.26912,-0.97946 -0.51721,-0.23112 -1.10041,-0.33536 -1.7496,-0.31272 -0.64919,0.0227 -1.2183,0.16709 -1.70733,0.43328 -0.49985,0.26659 -0.90453,0.62194 -1.21403,1.06605 -0.3095,0.44411 -0.53615,0.93409 -0.67996,1.46992 -0.14381,0.53583 -0.20591,1.08506 -0.18628,1.64769 0.0196,0.56263 0.1198,1.10621 0.30061,1.63072 0.18117,0.53533 0.4414,1.00832 0.78071,1.41897 0.33969,0.42147 0.76814,0.74777 1.28535,0.97889 0.50639,0.2315 1.08418,0.33593 1.73337,0.31329 0.64919,-0.0227 1.22371,-0.16728 1.72356,-0.43385 0.48903,-0.26621 0.8883,-0.62138 1.1978,-1.06549 0.30951,-0.44411 0.53616,-0.93408 0.67997,-1.46991 0.14381,-0.53583 0.2059,-1.08507 0.18628,-1.6477 z m -1.47691,0.0515 c 0.0113,0.32459 -0.0145,0.67215 -0.0774,1.04267 -0.0629,0.37051 -0.1751,0.7265 -0.3365,1.06795 -0.17224,0.34183 -0.41688,0.6266 -0.73393,0.85432 -0.31705,0.22771 -0.71902,0.35006 -1.20591,0.36704 -0.48689,0.017 -0.89641,-0.077 -1.22855,-0.28214 -0.33214,-0.20508 -0.59603,-0.47212 -0.79166,-0.80112 -0.19563,-0.329 -0.33233,-0.6763 -0.41008,-1.04191 -0.0886,-0.36523 -0.13851,-0.71015 -0.14983,-1.03474 -0.0113,-0.3246 0.0145,-0.67216 0.0774,-1.04267 0.0521,-0.37014 0.16423,-0.72612 0.33649,-1.06795 0.17224,-0.34183 0.41688,-0.6266 0.73393,-0.85432 0.31705,-0.22771 0.71902,-0.35006 1.20591,-0.36704 0.48689,-0.017 0.89641,0.077 1.22855,0.28214 0.33214,0.20508 0.59603,0.47212 0.79166,0.80112 0.18482,0.32937 0.32151,0.67668 0.41008,1.04191 0.0886,0.36523 0.13851,0.71015 0.14983,1.03474 z m -15.963242,0.39991 c -0.09312,0.56619 -0.08584,1.05564 0.02183,1.46833 0.107675,0.4127 0.288161,0.7496 0.541459,1.01069 0.251541,0.27178 0.54121,0.47851 0.869006,0.6202 0.317114,0.13993 0.65728,0.23976 1.020498,0.2995 0.341852,0.0562 0.66044,0.0539 0.955765,-0.007 0.293568,-0.0505 0.559474,-0.13291 0.797734,-0.24733 0.22757,-0.11617 0.42309,-0.23762 0.58657,-0.36434 0.15279,-0.12848 0.2949,-0.25871 0.42633,-0.3907 l 0.032,0.005 -0.19502,1.1858 1.33001,0.21874 1.37836,-8.38072 -1.41014,-0.23192 -0.75111,4.56693 c -0.0879,0.53415 -0.23109,0.97141 -0.4297,1.31179 -0.21106,0.3493 -0.44545,0.60699 -0.70317,0.77307 -0.27016,0.175 -0.53512,0.28503 -0.794885,0.33008 -0.270445,0.0433 -0.517838,0.0466 -0.742179,0.01 -0.662339,-0.10893 -1.098054,-0.36163 -1.307145,-0.75809 -0.209092,-0.39646 -0.251265,-0.97393 -0.126519,-1.73241 l 0.848622,-5.15984 -1.410141,-0.23192 z m -2.166502,-2.10373 c 0.198783,-0.52671 0.315863,-1.0669 0.351241,-1.62057 0.03538,-0.55366 -0.02241,-1.09041 -0.173375,-1.61026 -0.150962,-0.51984 -0.41545,-0.98417 -0.793463,-1.39298 -0.388143,-0.41264 -0.886085,-0.73364 -1.493828,-0.96301 -0.607743,-0.22936 -1.188544,-0.31548 -1.742403,-0.25836 -0.563988,0.0533 -1.074373,0.22516 -1.531154,0.51567 -0.456781,0.29048 -0.854796,0.65521 -1.194046,1.09419 -0.339249,0.43899 -0.608265,0.92183 -0.807048,1.44854 -0.198782,0.52671 -0.315862,1.0669 -0.351241,1.62056 -0.0392,0.56379 0.01859,1.10055 0.173376,1.61027 0.150962,0.51984 0.420514,0.98608 0.808656,1.39872 0.378013,0.40881 0.870892,0.7279 1.478635,0.95727 0.607743,0.22936 1.193608,0.31739 1.757596,0.26409 0.553859,-0.0571 1.059179,-0.23093 1.51596,-0.5214 0.456781,-0.29048 0.854797,-0.65521 1.194046,-1.09419 0.33925,-0.43899 0.608266,-0.92183 0.807048,-1.44854 z m -1.382615,-0.52181 c -0.114682,0.30387 -0.272461,0.61462 -0.473337,0.93225 -0.200877,0.31763 -0.4416,0.60287 -0.722169,0.8557 -0.290699,0.24901 -0.626211,0.41747 -1.006538,0.50537 -0.380326,0.0879 -0.798393,0.0458 -1.2542,-0.12619 -0.455807,-0.17202 -0.797418,-0.41666 -1.024835,-0.73393 -0.227417,-0.31726 -0.36797,-0.66538 -0.421659,-1.04437 -0.05369,-0.37899 -0.04593,-0.75214 0.02326,-1.11947 0.05907,-0.37115 0.145942,-0.70865 0.260627,-1.01252 0.114682,-0.30387 0.272461,-0.61462 0.473338,-0.93225 0.190747,-0.32145 0.43147,-0.60669 0.722169,-0.8557 0.290699,-0.24901 0.626211,-0.41747 1.006537,-0.50537 0.380326,-0.0879 0.798393,-0.0458 1.2542,0.12619 0.455807,0.17202 0.797419,0.41666 1.024836,0.73392 0.227417,0.31727 0.367969,0.66539 0.421658,1.04438 0.04356,0.37517 0.03581,0.74832 -0.02326,1.11947 -0.05907,0.37115 -0.145949,0.70865 -0.260628,1.01252 z m -14.396819,-5.10095 c -0.09601,0.15702 -0.182279,0.37076 -0.258811,0.64121 -0.09142,0.27403 -0.123823,0.59684 -0.09722,0.96842 0.0266,0.37158 0.172777,0.76551 0.438531,1.18179 0.265753,0.41629 0.698821,0.80797 1.299204,1.17506 0.77588,0.4744 1.526161,0.67935 2.250844,0.61485 0.382873,-0.0451 0.738563,-0.17021 1.067072,-0.37543 0.322861,-0.19598 0.60289,-0.48794 0.840087,-0.87588 0.293673,-0.48031 0.384879,-0.95116 0.273616,-1.41257 -0.126147,-0.45783 -0.417551,-0.91517 -0.874212,-1.37204 l -1.201427,-1.21046 c -0.46025,-0.47175 -0.749622,-0.83903 -0.868115,-1.10182 -0.12773,-0.26845 -0.10688,-0.54122 0.06255,-0.81832 0.231549,-0.3787 0.568265,-0.5662 1.010148,-0.56251 0.432645,-0.002 0.884503,0.14104 1.355573,0.42911 0.397177,0.24284 0.696841,0.48951 0.898992,0.74001 0.202151,0.2505 0.327321,0.492 0.37551,0.7245 0.03331,0.23609 0.02787,0.44214 -0.01631,0.61817 -0.05906,0.17961 -0.138653,0.37205 -0.23878,0.57732 l 1.177675,0.72006 c 0.171485,-0.30122 0.306788,-0.60553 0.405911,-0.91293 0.08989,-0.31304 0.115116,-0.66562 0.07569,-1.05773 -0.05431,-0.38852 -0.238466,-0.79298 -0.552459,-1.21338 -0.323231,-0.42605 -0.821984,-0.84521 -1.496261,-1.25748 -0.840537,-0.51393 -1.661386,-0.71761 -2.462548,-0.61104 -0.801162,0.10657 -1.424821,0.5247 -1.870978,1.25439 -0.304968,0.49878 -0.395408,0.98914 -0.27132,1.47109 0.124089,0.48194 0.503742,1.044 1.138961,1.68619 l 1.032871,1.05029 c 0.438188,0.44557 0.71294,0.78487 0.824255,1.0179 0.102078,0.22738 0.0684,0.47962 -0.101023,0.75672 -0.129893,0.21245 -0.287998,0.35688 -0.474315,0.43331 -0.195553,0.0708 -0.394432,0.0951 -0.596636,0.073 -0.202204,-0.0221 -0.387465,-0.072 -0.555783,-0.14948 -0.173967,-0.0683 -0.320988,-0.13916 -0.441065,-0.21257 -0.36023,-0.22026 -0.630389,-0.44255 -0.810478,-0.66686 -0.194973,-0.22073 -0.308346,-0.42964 -0.340121,-0.62673 -0.04666,-0.19349 -0.04893,-0.36619 -0.0068,-0.51809 0.04212,-0.15191 0.103742,-0.30458 0.184865,-0.45801 z m -7.117063,-6.57917 c -0.234685,0.31287 -0.425767,0.65001 -0.573244,1.01143 -0.147477,0.36142 -0.221231,0.73768 -0.221261,1.12878 -0.01531,0.392 0.06917,0.78581 0.253451,1.18142 0.176191,0.38841 0.46252,0.75886 0.858989,1.11133 0.509746,0.45318 1.037934,0.7634 1.584564,0.93067 0.538539,0.16008 1.081133,0.19338 1.627783,0.0999 0.538559,-0.10066 1.059144,-0.31146 1.561756,-0.63239 0.495419,-0.31284 0.966121,-0.72009 1.412105,-1.22175 0.834421,-0.93857 1.259314,-1.92978 1.274679,-2.97362 0.01537,-1.04383 -0.413876,-1.95419 -1.287728,-2.73106 -0.445016,-0.39563 -0.890042,-0.6609 -1.335078,-0.79579 -0.460321,-0.134 -0.89952,-0.16955 -1.317599,-0.10665 -0.418079,0.0629 -0.797951,0.18878 -1.139617,0.37753 -0.349757,0.18159 -0.666701,0.39959 -0.950831,0.65401 l 1.031628,0.91715 c 0.513407,-0.39826 1.026351,-0.60861 1.53883,-0.63104 0.505286,-0.0143 0.944027,0.14394 1.316222,0.47481 0.347921,0.30931 0.578061,0.63705 0.69042,0.98321 0.09708,0.34705 0.106038,0.69545 0.02689,1.04518 -0.09443,0.35064 -0.239658,0.68509 -0.435683,1.00335 -0.203218,0.32635 -0.4415,0.64325 -0.714845,0.95072 -0.266151,0.29937 -0.553429,0.56548 -0.861832,0.79832 -0.316495,0.22565 -0.644223,0.3906 -0.983186,0.49487 -0.338963,0.10427 -0.682864,0.12447 -1.031703,0.0606 -0.348839,-0.0639 -0.681038,-0.23607 -0.996595,-0.5166 -0.436925,-0.38843 -0.676498,-0.81147 -0.71872,-1.26911 -0.04222,-0.45764 0.09852,-0.93369 0.42223,-1.42816 z m -0.301821,-2.30401 c 0.446062,-0.34346 0.829719,-0.74135 1.15097,-1.19367 0.321251,-0.45232 0.554362,-0.93925 0.699335,-1.4608 0.144972,-0.52155 0.164189,-1.05558 0.05765,-1.60209 -0.113142,-0.55509 -0.367865,-1.08997 -0.764169,-1.60466 -0.396305,-0.51469 -0.845022,-0.89337 -1.346151,-1.13604 -0.507735,-0.25125 -1.032241,-0.37345 -1.573517,-0.36659 -0.541277,0.007 -1.071617,0.10778 -1.59102,0.30275 -0.519403,0.19498 -1.002136,0.4642 -1.448198,0.80766 -0.446061,0.34347 -0.829718,0.74136 -1.150969,1.19368 -0.329829,0.45893 -0.562941,0.94586 -0.699336,1.4608 -0.144972,0.52155 -0.160885,1.05986 -0.04774,1.61495 0.106537,0.54651 0.357957,1.0771 0.754261,1.59179 0.396305,0.51469 0.848324,0.89766 1.356059,1.14891 0.50113,0.24268 1.022333,0.36059 1.56361,0.35373 0.541276,-0.007 1.071616,-0.10779 1.591019,-0.30276 0.519404,-0.19497 1.002137,-0.46419 1.448198,-0.80766 z m -0.901592,-1.17091 c -0.257343,0.19815 -0.554961,0.37949 -0.892852,0.54402 -0.337891,0.16453 -0.692638,0.28054 -1.064241,0.34805 -0.378207,0.0589 -0.752168,0.0258 -1.121882,-0.0995 -0.369715,-0.12524 -0.703186,-0.38087 -1.000414,-0.76689 -0.297229,-0.38601 -0.459138,-0.77374 -0.485727,-1.16319 -0.02659,-0.38944 0.03694,-0.75945 0.190567,-1.11004 0.153635,-0.35059 0.356466,-0.6639 0.608491,-0.93994 0.24542,-0.28462 0.496802,-0.52601 0.754145,-0.72416 0.257343,-0.19815 0.554961,-0.37948 0.892852,-0.54401 0.331286,-0.17311 0.686033,-0.28912 1.064241,-0.34805 0.378207,-0.0589 0.752168,-0.0258 1.121883,0.0995 0.369714,0.12524 0.703185,0.38087 1.000413,0.76688 0.297229,0.38601 0.459138,0.77374 0.485728,1.16319 0.02659,0.38945 -0.03694,0.75946 -0.190568,1.11005 -0.160241,0.34201 -0.363071,0.65532 -0.608491,0.93993 -0.24542,0.28462 -0.496802,0.52601 -0.754145,0.72416 z m -9.617451,-14.46325 1.545901,3.66609 1.346729,-0.56788 -1.545901,-3.66609 z"
       id="text1"
       style="font-size:16.2396px;font-family:Helvetica;-inkscape-font-specification:Helvetica;stroke-width:1.3533"
       aria-label="Solicite um orçamento - Fale conosco - " />
  </g>
</svg>
